<svg xmlns="http://www.w3.org/2000/svg" width="13.75" height="17.5" viewBox="0 0 13.75 17.5"><defs><style>.a{opacity:0.75;}</style></defs><path class="a" d="M16.25-15H12.5v-1.25a1.2,1.2,0,0,0-.371-.879,1.2,1.2,0,0,0-.879-.371H7.5a1.2,1.2,0,0,0-.879.371,1.2,1.2,0,0,0-.371.879V-15H2.5v2.5H3.75V-1.25a1.2,1.2,0,0,0,.371.879A1.2,1.2,0,0,0,5,0h8.75a1.2,1.2,0,0,0,.879-.371A1.2,1.2,0,0,0,15-1.25V-12.5h1.25ZM7.5-16.25h3.75V-15H7.5v-1.25Zm6.25,15H5V-12.5H6.25v10H7.5v-10H8.75v10H10v-10h1.25v10H12.5v-10h1.25Z" transform="translate(-2.5 17.5)"/></svg>