<svg xmlns="http://www.w3.org/2000/svg" width="45" height="52.5" viewBox="0 0 45 52.5"><g transform="translate(-511.5 -267.5)"><path d="M41.25-52.5h-30a3.624,3.624,0,0,0-2.666,1.084A3.624,3.624,0,0,0,7.5-48.75v45A3.624,3.624,0,0,0,8.584-1.084,3.624,3.624,0,0,0,11.25,0h37.5a3.624,3.624,0,0,0,2.666-1.084A3.624,3.624,0,0,0,52.5-3.75v-37.5Zm7.5,48.75H11.25v-45H37.5V-37.5H48.75Z" transform="translate(504 320)"/><path d="M-9.625-15.125H-5.5V-19.25H-9.625Zm5.5-4.125v4.125H9.625V-19.25Zm-5.5,11H-5.5v-4.125H-9.625Zm5.5,0H9.625v-4.125H-4.125Zm-5.5,6.875H-5.5V-5.5H-9.625Zm5.5,0H9.625V-5.5H-4.125Z" transform="translate(533 310)"/></g></svg>