<svg xmlns="http://www.w3.org/2000/svg" width="45" height="52.5" viewBox="0 0 45 52.5"><g transform="translate(-254.5 -267.5)"><path d="M41.25-52.5h-30a3.624,3.624,0,0,0-2.666,1.084A3.624,3.624,0,0,0,7.5-48.75v45A3.624,3.624,0,0,0,8.584-1.084,3.624,3.624,0,0,0,11.25,0h37.5a3.624,3.624,0,0,0,2.666-1.084A3.624,3.624,0,0,0,52.5-3.75v-37.5Zm7.5,48.75H11.25v-45H37.5V-37.5H48.75Z" transform="translate(247 320)"/><path d="M12.25-3.5H9.844V-5.469H9.816A4,4,0,0,1,8.408-3.992,3.721,3.721,0,0,1,6.48-3.5a4.313,4.313,0,0,1-1.422-.219,3.025,3.025,0,0,1-1.094-.656,2.84,2.84,0,0,1-.7-1.012A3.475,3.475,0,0,1,3.035-6.7a3.288,3.288,0,0,1,.9-2.434,4.694,4.694,0,0,1,2.68-1.176l3.227-.465A2.464,2.464,0,0,0,9.3-12.51,2.173,2.173,0,0,0,7.629-13.1a5.1,5.1,0,0,0-1.846.342,6.026,6.026,0,0,0-1.682,1v-2.16a6.869,6.869,0,0,1,1.873-.766,8.827,8.827,0,0,1,2.119-.246,4.3,4.3,0,0,1,3.117,1.012,4.1,4.1,0,0,1,1.039,3.063ZM9.871-9.133l-2.3.328a6.446,6.446,0,0,0-.943.205,2.406,2.406,0,0,0-.67.314,1.165,1.165,0,0,0-.41.52,2.142,2.142,0,0,0-.137.82,1.545,1.545,0,0,0,.123.615,1.421,1.421,0,0,0,.369.506,1.611,1.611,0,0,0,.588.328,2.457,2.457,0,0,0,.752.109,2.706,2.706,0,0,0,1.039-.191,2.175,2.175,0,0,0,.82-.6,2.488,2.488,0,0,0,.574-.889,3.105,3.105,0,0,0,.191-1.107ZM-2.3-7.875H-8.2L-9.625-3.5H-12.25L-6.562-21h2.625L1.75-3.5H-.875ZM-3.145-10.5-5.25-16.953-7.355-10.5Z" transform="translate(277 310)"/></g></svg>