<svg xmlns="http://www.w3.org/2000/svg" width="178.578" height="180.998" viewBox="0 0 178.578 180.998"><defs><style>.a{fill:#4d4d4d;}.b{fill:#53c1de;}.c{fill:#c0c2c4;}.d{fill:#333;}.e{fill:#2e363a;}.f{fill:#e1e3e3;}.g{fill:#7ee4fc;}</style></defs><path class="a" d="M213.923,276.885A8.7,8.7,0,0,0,210.5,265.07l-2.539-1.4a8.7,8.7,0,0,0-11.815,3.425l-16.863,30.611a8.7,8.7,0,0,0,3.425,11.815l2.539,1.4A8.7,8.7,0,0,0,197.06,307.5Z" transform="translate(-59.602 -220.866)"/><path class="b" d="M166.26,184.713s-3.926-15.31-8.507-25.785c0,0-.916-2.856-9.241-1.724V157.2l-.236.037c-.08.012-.156.021-.238.033v.006c-8.292,1.35-8.335,4.349-8.335,4.349-1.218,10.932-.972,27.1-1,27.205,5.017,4.261,12.01,3.817,14.246,3.542v0s.129-.014.36-.049.36-.058.36-.058v0C155.89,191.872,162.708,190.254,166.26,184.713Z" transform="translate(-2.744 -136.92)"/><path class="b" d="M184.231,94.031a10.674,10.674,0,0,1,12.134,8.98c.871,5.831-3.326,7.844-9.157,8.713s-11.086.269-11.957-5.561A10.672,10.672,0,0,1,184.231,94.031Z" transform="translate(-40.447 -86.843)"/><path class="c" d="M66.06,164.593c-.2,1.072-1.175,3.717-.337,3.873l24.115,3.9c.832.15,2.437-1.937,2.634-3.012h0c.2-1.077-.579-3.464-1.413-3.618L67.34,162.053c-.834-.148-1.081,1.469-1.28,2.539Z" transform="translate(86.075 -140.977)"/><path class="b" d="M238.109,878.68l0,3.451a3.8,3.8,0,0,1-3.8,3.8H222.9a14.984,14.984,0,0,1-1.956-.138Z" transform="translate(-91.49 -710.383)"/><path class="b" d="M785.795,834.891l25.757,10.667c.154.072.314.121.474.179a17.115,17.115,0,0,1-9.313,2.761H789.834a4.292,4.292,0,0,1-4.294-4.294V834.77C785.628,834.807,785.71,834.856,785.795,834.891Z" transform="translate(-781.399 -675.494)"/><path class="a" d="M362.254,605.764l51.832-27.185c22.11-10.874,43.953-27.415,58.437-17.393,20.941,14.492-38.909,55.31-43.939,59.8-10.149,9.062-34.56,8.086-40.958,5.436l-23.912-8.793C359.642,615.946,355.367,612.651,362.254,605.764Z" transform="translate(-358.614 -455.653)"/><path class="a" d="M256.491,676.191s1.985-15.5.9-19.486-29.4-28.487-45.668-21.746c-9.114,3.774-5.07,14.19-7.782,22.93-.244.5-7.08,11.18-7.248,11.6l-4.894,8.094a7.1,7.1,0,0,0,3.842,9.282l15.33,8.15c2.771,1.148,10.767,3.121,17.165.47l22.1-9.157C254.3,684.641,256.31,681.266,256.491,676.191Z" transform="translate(-104.993 -515.806)"/><g transform="translate(60.352 91.84)"><path class="b" d="M329.687,610.662a16.1,16.1,0,0,1,1.368-2.891,18.071,18.071,0,0,1,33.724,3.215l3.5,13.1a4.509,4.509,0,0,1-3.195,5.531l-13.1,3.507c-5.65,1.51-15.127-2.677-14.835-2.457l-9.1-3.244a4.086,4.086,0,0,1-2.476-5.22Z" transform="translate(-303.61 -578.868)"/><path class="b" d="M205.15,543.892a19.661,19.661,0,0,1,25.379-8.962,47.025,47.025,0,0,0,14.143,31.032,4.909,4.909,0,0,1-3.84,3.616l-14.523,2.767a20.01,20.01,0,0,1-3.823.345L219.178,560.3A25.013,25.013,0,0,0,205.15,543.892Z" transform="translate(-155.159 -527.772)"/><path class="b" d="M434.873,529.091a46.3,46.3,0,0,0,15.885-22.34,19.469,19.469,0,0,1,21.964,15.1,24.756,24.756,0,0,0-17.635,12.086l-6.352,10.989a19.5,19.5,0,0,1-3.573-1.313l-13.171-6.379a4.864,4.864,0,0,1-2.741-4.444A46.806,46.806,0,0,0,434.873,529.091Z" transform="translate(-429.25 -506.526)"/></g><path d="M252.556,436.987s4.277-18.576,13.67-34.5c0,0,4.347-4.031,24.542-1.533l0-.008.575.08c.193.025.38.045.575.072l0,.008c20.15,2.835,23.3,7.856,23.3,7.856,4.935,17.818,4.238,36.869,4.238,36.869-11.408,6.2-28.3,4.89-33.712,4.265v0s-.316-.035-.875-.109-.873-.121-.873-.121v0C278.61,449.061,261.961,445.938,252.556,436.987Z" transform="translate(-179.367 -330.153)"/><path class="b" d="M434.147,294.829a33.762,33.762,0,0,0,3.879-5.709,14.712,14.712,0,0,1,4.277,2.765c6.784,6.26,7.291,17.816,1.138,25.81s-16.643,9.4-23.425,3.145l-9.212-8.5a4.772,4.772,0,0,1-.857-5.494A33.728,33.728,0,0,0,434.147,294.829Z" transform="translate(-339.851 -241.945)"/><path class="b" d="M226.652,323.4a34.116,34.116,0,0,1-1.105-6.858,14.821,14.821,0,0,0-5.079.694c-8.855,2.819-14.25,13.138-12.045,23.057s11.166,15.669,20.023,12.857l12.025-3.825a4.794,4.794,0,0,0,3.121-4.649A33.91,33.91,0,0,1,226.652,323.4Z" transform="translate(-94.297 -263.724)"/><path class="d" d="M288.011,208.142l-11.226-16.729c-8.263-12.321-5.9-30.213,5.282-39.959s26.95-7.667,35.219,4.655,5.9,30.209-5.282,39.959l-15.189,13.239A5.765,5.765,0,0,1,288.011,208.142Z" transform="translate(-186.06 -127.681)"/><path class="c" d="M308.575,187.5c-1.74,13.167,5.366,24.974,15.885,26.365s20.458-8.164,22.2-21.331-5.372-24.99-15.893-26.381S310.317,174.32,308.575,187.5Z" transform="translate(-218.25 -144.134)"/><g transform="translate(74.411 86.059)"><path class="e" d="M254.07,556.377c.764.871,1.091,1.674.916,2.2a.853.853,0,0,1-.082.177c.345.064.67.121.972.175l.777.13.333.057s.273.043.766.113l.273.039c.489.068.764.1.764.1l1.054.117c5.609.606,19.563,1.5,30.4-2.884q-.065-1.109-.148-2.291c-11.172,4.826-26.422,3.46-31.053,2.891l-.528-.064-.327-.045c-.166-.025-.312-.043-.431-.062l-.427-.068c-.507-.08-1.138-.185-1.876-.318Q254.813,556.527,254.07,556.377Z" transform="translate(-224.843 -538.713)"/><path class="e" d="M444.733,560.031q-.321.333-.653.653.891.234,1.73.436c-.018-.249-.043-.5-.072-.756.384-.411.746-.824,1.081-1.239-.337-.078-.684-.162-1.038-.249l-.263-.066q-.5-.126-1.017-.261Q444.637,559.289,444.733,560.031Z" transform="translate(-420.452 -542.081)"/><path class="e" d="M463.408,552.6a1.983,1.983,0,0,0-.053,1.058c1.136.376,2.25.717,3.326,1.023a1.968,1.968,0,0,0,.526-.826,2,2,0,0,0-.01-1.286c-1-.284-2.032-.6-3.084-.945A1.98,1.98,0,0,0,463.408,552.6Z" transform="translate(-444.891 -536.575)"/><path class="e" d="M487.992,546.286q-.354.373-.682.742.934.364,1.857.694c-.064-.364-.121-.731-.171-1.1q.468-.475.955-.924c-.333-.119-.668-.24-1-.368l-.09-.033v0c-.327-.121-.655-.249-.986-.378Q487.911,545.589,487.992,546.286Z" transform="translate(-472.467 -531.252)"/><path class="e" d="M512.6,512.84a42.112,42.112,0,0,0,7.449,4.692c.32.16.641.318.964.47a1.1,1.1,0,0,1,.023-.54c.148-.446.721-.836,1.6-1.093-.4-.181-.791-.37-1.183-.563a39.239,39.239,0,0,1-8.074-5.146Q512.969,511.782,512.6,512.84Z" transform="translate(-510.346 -504.03)"/><path class="e" d="M252.88,593.3q.539.139,1.056.265c2.8.678,5.142,1.105,6.648,1.35l.359.055s.279.045.779.115l.279.039c.5.07.775.1.775.1l1.056.119c5.824.631,20.567,1.574,31.708-3.242-.006-.721-.018-1.51-.039-2.371-11.437,5.368-27.632,3.924-32.467,3.33l-.528-.064c-.1-.014-.216-.031-.343-.047-.173-.027-.325-.045-.45-.064l-.425-.068c-1.368-.214-3.641-.614-6.41-1.27-.3-.072-.614-.146-.931-.224A4.118,4.118,0,0,1,252.88,593.3Z" transform="translate(-229.893 -566.856)"/><path class="e" d="M471.94,589.447c.563.21,1.124.409,1.678.6h0c.3-.095.6-.205.914-.335.253-.1.5-.216.748-.335.1.193.205.378.31.557q.3.512.627.955.863.265,1.7.5a8.848,8.848,0,0,1-1.5-1.944c-.1-.166-.193-.337-.281-.508.131-.072.263-.148.4-.224-.6-.189-1.218-.386-1.837-.594.055.134.113.265.171.394-.236.113-.468.216-.7.31A8.625,8.625,0,0,1,471.94,589.447Z" transform="translate(-457.275 -565.576)"/><path class="e" d="M510.18,546.43a45.651,45.651,0,0,0,11.517,6.831q.515.219,1.025.427a2.81,2.81,0,0,1-.035-1.111,5.95,5.95,0,0,1,.279-1.134q-.441-.185-.881-.378a41.551,41.551,0,0,1-11.209-6.915C510.618,544.97,510.385,545.734,510.18,546.43Z" transform="translate(-510.18 -530.64)"/><path class="e" d="M256.86,523.614c.323.074.637.144.941.21,1.214.259,2.278.458,3.141.608l.1.016.553.092.39.066s.253.041.7.1l.279.039c.448.064.7.092.7.092l1.054.117c5.385.575,18.737,1.4,28.9-2.934-.078-.744-.164-1.5-.257-2.266-10.449,4.76-25.054,3.458-29.442,2.919l-.493-.06-.3-.043-.4-.058-.4-.064c-.974-.152-2.447-.409-4.247-.8-.333-.072-.678-.148-1.033-.23A3.448,3.448,0,0,1,256.86,523.614Z" transform="translate(-228.8 -511.261)"/><path class="e" d="M448.177,518.8c.117.2.232.4.339.61q-.4.222-.814.477c.417.134.828.261,1.237.384s.8.238,1.192.349c-.111-.271-.224-.534-.341-.789.142-.066.279-.129.417-.189a10.168,10.168,0,0,1,2.128-.67c-.583-.152-1.183-.316-1.8-.493-.234.086-.471.181-.711.284-.154.068-.308.138-.46.21-.117-.224-.24-.444-.37-.661-.072-.121-.146-.242-.222-.357q-.764-.24-1.547-.505A10.377,10.377,0,0,1,448.177,518.8Z" transform="translate(-426.616 -509.425)"/><path class="e" d="M485.99,480.5a42.825,42.825,0,0,0,11.1,6.447c.3.123.6.245.892.362a4.63,4.63,0,0,1,.994-1.935q-.468-.185-.937-.376a39.769,39.769,0,0,1-11.174-6.611Q486.413,479.459,485.99,480.5Z" transform="translate(-481.218 -478.39)"/></g><g transform="translate(84.101 91.715)"><path class="b" d="M420.837,513.766a1.618,1.618,0,0,1,.078-.372,2.446,2.446,0,0,1,1.325-1.354,8.3,8.3,0,0,1,3.552-.7c.251,0,.5,0,.756.01.012-.168.029-.335.047-.5a11.458,11.458,0,0,1,.409-2.02,5.992,5.992,0,0,1,.949-1.95,2.342,2.342,0,0,1,1.344-.918c1.247-.259,2.739.859,4,2.837.076.115.15.236.222.357.129.218.253.438.37.662.152-.072.306-.142.46-.21.24-.1.477-.2.711-.284,2.18-.793,4.027-.768,4.871.183a2.111,2.111,0,0,1,.491,1.161,5.036,5.036,0,0,1-.286,2.163,10.741,10.741,0,0,1-.865,1.929c-.125.22-.255.438-.39.653.247.166.483.337.7.507a8.754,8.754,0,0,1,2.163,2.278,2.706,2.706,0,0,1,.438,2.233c-.006.018-.012.035-.018.051-.47,1.288-2.432,2.079-5.009,2.106-.212,0-.423,0-.635-.012-.021.273-.047.544-.084.816a10.774,10.774,0,0,1-.318,1.568,5.94,5.94,0,0,1-.943,2.013,2.332,2.332,0,0,1-1.348.927c-1.155.238-2.548-.668-3.751-2.322q-.324-.444-.627-.955c-.1-.179-.207-.364-.31-.557-.245.119-.5.23-.748.335-.312.129-.616.24-.914.335h0c-1.923.614-3.517.524-4.292-.345a2.362,2.362,0,0,1-.534-1.5,5.883,5.883,0,0,1,.388-2.2,10.981,10.981,0,0,1,.8-1.732c.1-.175.2-.349.314-.528-.121-.084-.238-.168-.353-.255C421.823,516.706,420.689,515.058,420.837,513.766Zm5.991,2.757a20.689,20.689,0,0,0-1.333,1.635,20.4,20.4,0,0,0,1.874.994c-.107-.431-.205-.863-.3-1.3S426.9,516.969,426.828,516.523Zm2.749,6.239c.583-.323,1.183-.694,1.785-1.109-.411-.119-.83-.247-1.251-.386s-.859-.3-1.276-.454A20.194,20.194,0,0,0,429.577,522.762Zm.834-2.406c.661.22,1.313.413,1.946.577q.817-.622,1.586-1.307.416-.373.82-.76.333-.32.653-.653-.1-.743-.232-1.481c-.033-.177-.068-.355-.1-.532q-.206-1-.489-1.983c-.616-.257-1.257-.5-1.913-.713s-1.317-.409-1.964-.569q-.807.619-1.568,1.3c-.177.156-.353.316-.526.479q-.487.45-.955.924c.049.366.107.733.171,1.1.053.31.111.618.175.927q.206,1,.477,1.985C429.1,519.9,429.747,520.137,430.411,520.357Zm5.6-4.349q.1.493.185.986c.018.1.035.208.051.312.072-.082.142-.164.212-.247.39-.458.75-.916,1.074-1.37-.563-.337-1.173-.661-1.82-.97C435.826,515.147,435.927,515.576,436.015,516.007Zm-.47,3.435q-.475.462-.968.9t-1.029.871a20.417,20.417,0,0,0,2.065.333C435.625,520.881,435.6,520.172,435.545,519.442Zm-8.021-5.13c0,.037,0,.072.008.111.027-.027.053-.051.082-.078q.441-.422.9-.828.49-.435,1-.849a20.464,20.464,0,0,0-2.052-.3c-.01.612.012,1.266.068,1.943Zm1.966-7.419a1.2,1.2,0,0,0-.6.357,4.63,4.63,0,0,0-.994,1.935,10.759,10.759,0,0,0-.349,1.767c-.019.152-.033.3-.045.456a22.783,22.783,0,0,1,2.993.491c.581-.431,1.159-.824,1.726-1.173q.41-.256.814-.477c-.107-.205-.222-.411-.339-.61a10.384,10.384,0,0,0-.947-1.352C430.906,507.282,430.068,506.775,429.49,506.894Zm2.215,5.315c.851.236,1.691.514,2.515.83-.232-.682-.489-1.327-.762-1.927A20.006,20.006,0,0,0,431.7,512.209Zm7.488.409a3.448,3.448,0,0,0,.193-2.184.918.918,0,0,0-.173-.294c-.368-.415-1.227-.536-2.361-.327a10.165,10.165,0,0,0-2.128.67c-.138.06-.275.123-.417.189.117.255.23.518.341.789.265.647.509,1.335.729,2.052a23.215,23.215,0,0,1,2.693,1.381c.125-.2.247-.4.364-.608A9.771,9.771,0,0,0,439.193,512.618Zm-2.626,9c.193.008.386.012.579.01a8.139,8.139,0,0,0,2.917-.5,2.294,2.294,0,0,0,1.13-.826.854.854,0,0,0,.082-.177c.175-.526-.152-1.329-.916-2.2a9.564,9.564,0,0,0-1.36-1.253c-.214-.162-.431-.32-.655-.473q-.391.552-.844,1.105c-.335.415-.7.828-1.081,1.239.029.255.053.507.072.756A21.823,21.823,0,0,1,436.568,521.618Zm-6.293,2.515a8.846,8.846,0,0,0,1.5,1.944h0l0,0a4.953,4.953,0,0,0,.382.333,2.269,2.269,0,0,0,1.292.567.856.856,0,0,0,.181-.018,1.069,1.069,0,0,0,.485-.255,4.118,4.118,0,0,0,1.068-1.972,10.337,10.337,0,0,0,.3-1.469c.035-.253.06-.505.08-.758a22.438,22.438,0,0,1-3.006-.532,24,24,0,0,1-2.174,1.428c-.134.076-.265.152-.4.224C430.082,523.8,430.176,523.966,430.275,524.133Zm-6.354-3.065a5.95,5.95,0,0,0-.279,1.134,2.811,2.811,0,0,0,.035,1.111,1.07,1.07,0,0,0,.224.44,2.214,2.214,0,0,0,1.9.382h0a8.623,8.623,0,0,0,2.229-.622c.228-.095.46-.2.7-.31-.057-.129-.115-.261-.171-.394a23.136,23.136,0,0,1-.863-2.459,22.323,22.323,0,0,1-2.734-1.4c-.1.16-.2.321-.286.477A9.92,9.92,0,0,0,423.921,521.068Zm.45-3.659c.1.076.21.152.32.23.378-.524.809-1.06,1.286-1.6q.327-.37.682-.742-.08-.7-.121-1.366-.052-.847-.037-1.631c-.238-.008-.47-.012-.7-.008a9.108,9.108,0,0,0-2.377.31h0c-.879.257-1.452.647-1.6,1.093a1.1,1.1,0,0,0-.023.54A6.174,6.174,0,0,0,424.371,517.409Z" transform="translate(-420.824 -505.92)"/><path class="b" d="M463.354,552.114a2,2,0,0,0,3.326,1.023,1.968,1.968,0,0,0,.526-.826,2,2,0,1,0-3.852-.2Z" transform="translate(-454.581 -540.691)"/></g><ellipse class="f" cx="10.246" cy="15.828" rx="10.246" ry="15.828" transform="translate(93.86 30.145)"/><path class="g" d="M238.538,401.517c.205.084-7.484,3.191-8.77,2.782,0,0-8.664-8.415-10.067-11.682l4.407-6.248S229.851,397.959,238.538,401.517Z" transform="translate(-91.666 -319.216)"/><path class="g" d="M489.8,360.743c-.2,0,5.04,5.321,6.252,5.444,0,0,6.821-.766,14.075-7.055l-2.564-4.553S498.252,360.918,489.8,360.743Z" transform="translate(-418.735 -293.957)"/><path class="g" d="M574.988,584.94s-8.962,10.5-12.927,10.911c0,0-.1,2.147,5.163,4.364a97.516,97.516,0,0,1,9.068,4.364s1.561-.2.507-1.114-10.044-4.853-10.044-5.828,8.464-9.946,9.3-11.918Z" transform="translate(-500.627 -476.991)"/><path class="g" d="M226.554,625.38s4.353,11.647,9.126,13.779a2.222,2.222,0,0,1-1.411,2.264c-1.625.711-5.868.974-7.258,1.574s-10.529,2.628-11.147,1.379a14.13,14.13,0,0,1-1.411-4.335.872.872,0,0,1,1.574-.355c.549.731.639,3.137,1.522,3.047s12.711-2.172,13.656-2.689c0,0-5.785-11.778-5.989-13.911Z" transform="translate(-87.734 -509.122)"/><path class="g" d="M366.177,690.429s2.245,4.968,1.241,7.076-5.469,2.315-6.819,2.9-9.274,3.813-14.821,2.736-6.385-2.6-10.741-4.14-2.287-2.227-1.526-2.118,6.061,1.923,7.2,2.3,8.8,3.441,15.117.121,6.276-1.072,7.252-3.468-.392-8.573,1.282-8.968S365.557,688.862,366.177,690.429Z" transform="translate(-243.945 -557.94)"/><path d="M336.922,204.217c.117-.885,5.235.442,12.138,1.531.205-1.5.438-2.967.69-4.368-6.689-.805-11.737-1.218-11.638-1.97s5.21-.464,11.943.347c.294-1.52.608-2.952.922-4.281-6-.639-10.58-.653-10.5-1.274s4.775-.807,10.856-.181c.394-1.547.779-2.917,1.144-4.082-4.053-.509-7.1-.844-7.039-1.319s3.281-.456,7.462.01c.622-1.828,1.111-2.874,1.3-2.852s.006,1.114-.368,2.963c.21.027.417.047.629.076,4.912.649,8.838,1.615,8.766,2.153s-4.033-.15-8.947-.8l-.721-.095c-.244,1.175-.528,2.552-.836,4.1.337.037.67.076,1.011.121,7.2.953,12.922,2.646,12.828,3.349s-5.82-.914-13.025-1.865c-.374-.049-.74-.094-1.1-.142-.263,1.348-.528,2.782-.791,4.312.436.051.873.109,1.319.168,8.113,1.072,14.646,2.305,14.531,3.172s-6.636-.462-14.747-1.535l-1.376-.181c-.23,1.418-.454,2.9-.662,4.415.479.072.959.136,1.45.2,8.411,1.111,15.363,1.033,15.23,2.046s-7.02.586-15.431-.526q-.733-.1-1.446-.2c-.2,1.633-.374,3.221-.522,4.742.44.074.89.142,1.342.2,8.113,1.072,14.963-.094,14.85.762s-6.928,1.748-15.041.676c-.431-.058-.861-.123-1.282-.189-.134,1.529-.249,2.993-.343,4.331.351.053.7.109,1.056.156,7.2.953,13.294-.175,13.2.524s-6.57,1.8-13.777.846c-.2-.027-.382-.053-.575-.082-.1,1.619-.183,3.049-.255,4.218.218.035.436.07.664.1,4.912.649,9.06-.062,8.988.479s-4.232,1.352-9.144.7c-.2-.027-.392-.055-.588-.086-.1,1.5-.21,2.359-.374,2.338s-.341-.92-.468-2.482c-4.2-.777-7.279-2.334-7.213-2.823.062-.473,3.047.844,7.131,1.6-.062-1.19-.095-2.634-.082-4.269-6.186-1.12-10.474-3.355-10.391-3.99.08-.614,4.442,1.387,10.412,2.525.033-1.352.1-2.815.191-4.349-6.7-1.229-11.6-3.349-11.495-4.109s4.945,1.379,11.6,2.646c.117-1.51.269-3.082.466-4.7C341.949,206.266,336.8,205.1,336.922,204.217Z" transform="translate(-244.674 -159.835)"/><g transform="translate(24.745)"><path class="c" d="M233.765,66.384a2.1,2.1,0,0,0,1.683,2.449L345.6,90.616c1.142.207,3.207-1.956,3.417-3.094h0c.214-1.144-.98-3.751-2.122-3.961L236.208,64.695a2.094,2.094,0,0,0-2.443,1.689Z" transform="translate(-229.79 -63.6)"/><path class="b" d="M552.744,100.142l.487-2.79a2.443,2.443,0,0,1,2.831-1.987,2.377,2.377,0,0,1,1.081.489,2.419,2.419,0,0,1,3.164,2.73l-.481,2.79a2.447,2.447,0,0,1-2.833,1.987,2.489,2.489,0,0,1-1.081-.489,2.421,2.421,0,0,1-1.179.1A2.447,2.447,0,0,1,552.744,100.142Z" transform="translate(-506.628 -87.967)"/><path class="b" d="M775.493,61.6a2.531,2.531,0,0,0,2.063,2.93l2.886.5a2.526,2.526,0,0,0,2.928-2.061h0a2.532,2.532,0,0,0-2.061-2.928l-2.886-.5a2.525,2.525,0,0,0-2.93,2.059Z" transform="translate(-775.454 -59.499)"/></g><path class="a" d="M300.194,326.84a8.7,8.7,0,0,0,2.782-11.984l-1.533-2.461a8.7,8.7,0,0,0-11.984-2.782L259.8,328.091a8.7,8.7,0,0,0-2.782,11.984l1.533,2.461a8.7,8.7,0,0,0,11.984,2.782Z" transform="translate(-164.813 -257.181)"/><path class="b" d="M229.836,238.454S233.887,223.177,235,211.8c0,0,.6-2.94-7.221-6.018l0,0c-.076-.029-.15-.053-.226-.082s-.146-.058-.224-.086l0,0c-7.9-2.872-9.4-.275-9.4-.275-6.4,8.945-14.081,23.172-14.157,23.252,2.3,6.17,8.618,9.2,10.7,10.048v0s.121.051.339.132.341.125.341.125v0C217.289,239.635,224.028,241.554,229.836,238.454Z" transform="translate(-84.869 -174.519)"/><path class="b" d="M197.019,148.635a10.673,10.673,0,0,1,6.2,13.763c-2.087,5.514-6.732,5.22-12.247,3.131s-9.806-5.179-7.719-10.691A10.675,10.675,0,0,1,197.019,148.635Z" transform="translate(-49.443 -129.77)"/><path class="g" d="M207.123,171.58s2.911,3.912.957,7.7-4.89,3.881-4.89,3.881l-5.876,28.559a9.3,9.3,0,0,1-4.629.659l7.246-29.161s-3.316-.382-2.326-1.461,4.193-.964,5.568-1.6,5.284-3.221,2.412-7.456C204.072,170.477,206.2,170.175,207.123,171.58Z" transform="translate(-56.329 -147.876)"/><path class="d" d="M224.639,716.16s6.893,5.814,6.461,6.677-3.554,2.153-4.846,1.292-6.139-7.106-6.139-7.106Z" transform="translate(-84.33 -581.252)"/><path class="d" d="M202.77,713.54s6.568,5.276,6.784,6.784-.107,20.245-1.077,21.968-1.292,1.077-1.292.107,1.077-20.353.645-21.753-7.322-6.784-7.322-6.784Z" transform="translate(-58.8 -579.17)"/><path class="d" d="M537.092,747.6s-32.234,26.274-35.68,26.922-2.463-.425-2.153-1.185c.316-.777,34.983-27.406,35.141-26.813Z" transform="translate(-447.574 -605.369)"/><path class="d" d="M546.941,741.58s-24.732,19.061-25.27,18.63-1.4-.97-.645-1.615,24.768-17.625,24.768-17.625Z" transform="translate(-461.91 -600.965)"/></svg>