<?xml version="1.0" encoding="utf-8"?>
<!-- Generator: Adobe Illustrator 24.0.3, SVG Export Plug-In . SVG Version: 6.00 Build 0)  -->
<svg version="1.1" id="Layer_1" xmlns="http://www.w3.org/2000/svg" xmlns:xlink="http://www.w3.org/1999/xlink" x="0px" y="0px"
	 viewBox="0 0 665.86 698.34" style="enable-background:new 0 0 665.86 698.34;" xml:space="preserve">
<style type="text/css">
	.st0{fill:#0B0204;}
	.st1{fill:#0C2749;}
	.st2{fill:#29B473;}
	.st3{fill:#FFFFFF;}
	.st4{fill:#FAB16A;}
	.st5{fill:#F27043;}
	.st6{fill:#5F318D;}
	.st7{fill:#84CEF2;}
	.st8{fill:none;}
	.st9{fill:#E07E27;}
	.st10{fill:#0A183D;}
	.st11{fill:#E11D37;}
	.st12{fill:#C22035;}
	.st13{fill:#15254B;}
	.st14{fill:#E21E36;}
	.st15{fill:#E9AC6A;}
	.st16{fill:#E8AB6A;}
	.st17{fill:#DA7F27;}
	.st18{fill:#41B983;}
	.st19{fill:#2A374B;}
	.st20{fill:#67C08B;}
	.st21{fill:#16254C;}
	.st22{fill-rule:evenodd;clip-rule:evenodd;fill:#67C08B;}
	.st23{fill-rule:evenodd;clip-rule:evenodd;fill:#0C2749;}
	.st24{fill-rule:evenodd;clip-rule:evenodd;fill:#30495C;}
	.st25{fill-rule:evenodd;clip-rule:evenodd;fill:#FAB16A;}
	.st26{fill-rule:evenodd;clip-rule:evenodd;fill:#DA7F27;}
	.st27{fill-rule:evenodd;clip-rule:evenodd;fill:#F27043;}
</style>
<g>
	<circle class="st3" cx="211.31" cy="342.12" r="83.91"/>
</g>
<path class="st7" d="M462.93,435.63l-79.96,9.56L367.18,324c-5.4-34.02,20.89-64.81,55.33-64.81l0,0
	c34.45,0,60.74,30.79,55.33,64.81L462.93,435.63z"/>
<path class="st1" d="M504.67,326.73c-21.86,0-44.81-9-63.58-25.87c-8.51-7.65-9.2-20.74-1.56-29.25s20.74-9.2,29.25-1.56
	c15.41,13.85,34.42,18.88,48.45,12.82c6.61-2.86,12.38-8.34,17.16-16.3c8.89-14.79,6.54-30.57,5.12-36.66
	c-2.6-11.14,4.33-22.27,15.46-24.87c11.14-2.6,22.27,4.33,24.87,15.47c2.57,11.01,6.74,39.61-9.95,67.39
	c-9.33,15.53-21.52,26.63-36.24,32.99C524.57,324.82,514.74,326.73,504.67,326.73z"/>
<polygon class="st7" points="539.03,165.07 532.41,248.74 589.22,244.86 566.67,160.39 "/>
<path class="st7" d="M506.96,182.07l-11.87-8.89c-4.38-3.28-6.51-8.75-5.52-14.13l3.25-17.51c0.42-2.28,3.14-3.28,4.94-1.81
	l1.63,1.33c0.58,0.47,0.96,1.14,1.08,1.87L506.96,182.07z"/>
<path class="st4" d="M474.05,677.28c-1.89,0-3.81-0.43-5.62-1.35c-6.12-3.11-8.56-10.59-5.45-16.71l52.46-103.28
	c3.11-6.12,10.59-8.56,16.71-5.45c6.12,3.11,8.56,10.59,5.45,16.71l-52.46,103.28C482.94,674.79,478.57,677.28,474.05,677.28z"/>
<path class="st4" d="M462.17,664.11c-0.43,7.33,5.44,13.48,12.79,13.39l4.81-0.06l43.28-0.54c3.74-0.04,7.03-2.79,7.62-6.61
	c0.66-4.26-2.26-8.26-6.52-8.92l-23.02-4.02l-23.77-4.88C469.8,650.91,462.62,656.42,462.17,664.11L462.17,664.11z"/>
<path class="st4" d="M145.52,677.27c-2.92,0-5.85-1.02-8.21-3.1c-5.15-4.54-5.64-12.39-1.1-17.54l98.51-111.74
	c4.54-5.15,12.39-5.64,17.54-1.1c5.15,4.54,5.64,12.39,1.1,17.54l-98.51,111.74C152.39,675.85,148.96,677.27,145.52,677.27z"/>
<path class="st4" d="M158.02,664.11c0.43,7.33-5.44,13.48-12.79,13.39l-4.81-0.06l-43.28-0.54c-3.74-0.04-7.03-2.79-7.62-6.61
	c-0.66-4.26,2.26-8.26,6.52-8.92l23.02-4.02l23.77-4.88C150.4,650.91,157.57,656.42,158.02,664.11L158.02,664.11z"/>
<path class="st0" d="M443.94,462.59l-70.9,80.79c-0.15,0.17-0.27,0.34-0.39,0.53l-56.24,94.56c-0.64,1.08-1.8,1.74-3.06,1.76
	L94.78,641.9c-3.21,0.02-4.83-3.86-2.56-6.13l115.86-115.51c0.29-0.29,0.63-0.53,1-0.7l176.4-83.72c0.89-0.42,1.92-0.46,2.85-0.1
	l54.24,21.15C444.86,457.78,445.58,460.72,443.94,462.59z"/>
<path class="st0" d="M452.4,419.07L569.05,521.3c1.08,0.95,1.5,2.46,1.04,3.83L532,640.27c-0.48,1.48-1.87,2.47-3.43,2.46
	l-137.8-0.74c-2.52-0.01-4.24-2.54-3.32-4.89l38.29-98.55c0.22-0.57,0.3-1.19,0.21-1.8l-14.68-104.89
	c-0.25-1.79,0.87-3.48,2.61-3.96l35.22-9.59C450.25,417.98,451.5,418.27,452.4,419.07z"/>
<polygon class="st0" points="376.92,259.58 346.5,290 372.58,300.43 404.73,267.41 404.73,225.69 376.92,225.69 "/>
<path class="st1" d="M375.15,406.93l93.86-9.22l-4.1,33.19c-2.63,21.29-20.42,37.47-41.87,38.06l0,0
	c-21.93,0.61-40.87-15.25-44.13-36.95L375.15,406.93z"/>
<g>
	<path class="st1" d="M532.9,462.2L484.45,504c-1.37,1.18-3.46,0.89-4.45-0.63l-45.93-69.95c-0.92-1.41-0.51-3.29,0.91-4.18
		l26.42-16.5c0.99-0.62,2.25-0.6,3.22,0.04l67.95,44.65C534.25,458.53,534.4,460.9,532.9,462.2z"/>
	<path class="st1" d="M327.45,480.55l-19.76-17.99c-1.57-1.43-1.19-3.99,0.72-4.91l76.2-36.49c1.14-0.54,2.49-0.32,3.39,0.57
		l19.99,19.69c1.5,1.47,1.05,3.98-0.86,4.85l-76.42,34.8C329.62,481.55,328.34,481.35,327.45,480.55z"/>
	<path class="st1" d="M347.03,478.61l52.92-41.77c0.3-0.23,0.63-0.41,0.98-0.51l46.94-14.21c1.8-0.54,3.64,0.68,3.84,2.55
		l8.71,82.35c0.22,2.06-1.67,3.71-3.68,3.22l-108.57-26.38C345.76,483.27,345.08,480.15,347.03,478.61z"/>
</g>
<g>
	<path class="st7" d="M437.52,172.9l11.22-33.47c2.46-7.35,9.25-12.38,16.99-12.6l0,0c9.53-0.27,17.3-7.76,17.91-17.28l1.23-19.02
		l10.34,2.81l-2.98,24.95c-1.12,9.41-9.18,16.44-18.65,16.29l-3.45-0.06c-6.8-0.11-13.11,3.52-16.43,9.45L437.52,172.9z"/>
	<path class="st7" d="M437.69,172.39l19.71-22.53c3.77-4.31,9.32-6.63,15.03-6.28l8.24,0.51c8.12,0.5,15.61-4.38,18.44-12.01
		l7.75-20.88l11.13,3.85l-11.98,27.7c-3.37,7.78-11.59,12.27-19.95,10.9l-11.3-1.85c-4.95-0.81-10.02,0.42-14.04,3.42L437.69,172.39
		z"/>
	<path class="st0" d="M395.17,259.57l41.72,36.5l50.41-19.99l-28.32-22.66c-4.07-3.26-6.44-8.19-6.44-13.4v-25.64h-57.36V259.57z"/>
	<path class="st1" d="M376.49,197.86v44.32c0,9.6,7.78,17.39,17.37,17.39h15.65c24.01,0,43.46-19.46,43.46-43.46v-44.32
		c0-9.6-7.78-17.37-17.39-17.37h-15.65C395.95,154.41,376.49,173.86,376.49,197.86z"/>
	<path class="st4" d="M433.11,214.03v-2.79c0-17.95-14.55-32.51-32.51-32.51l0,0c-7.48,0-14.36,2.53-19.85,6.77
		c-1.16,3.91-1.79,8.06-1.79,12.35v40.42c5.75,5.14,13.33,8.25,21.64,8.25l0,0C418.56,246.53,433.11,231.98,433.11,214.03z"/>
	<path class="st8" d="M435.59,203.51c0-22.06-16.44-40.27-37.73-43.07c-12.79,7.57-21.36,21.49-21.36,37.42v44.32
		c0,0.65,0.04,1.28,0.11,1.91c4.83,1.85,10.06,2.87,15.53,2.87C416.13,246.97,435.59,227.52,435.59,203.51z"/>
	<polygon class="st9" points="382.4,221.33 398.05,221.33 398.05,194.38 	"/>
	<rect x="378.57" y="188.3" class="st1" width="73.1" height="3.48"/>
	<rect x="376.48" y="203.95" class="st1" width="75.19" height="3.48"/>
	<rect x="376.48" y="235.23" class="st1" width="60.41" height="3.48"/>
	<path class="st3" d="M420.51,200.85h-3.56c-1.4,0-2.53-1.13-2.53-2.53v-0.17c0-1.4,1.13-2.53,2.53-2.53h3.56
		c1.4,0,2.53,1.13,2.53,2.53v0.17C423.04,199.72,421.9,200.85,420.51,200.85z"/>
	<path class="st3" d="M385.06,200.85h-3.56c-1.4,0-2.53-1.13-2.53-2.53v-0.17c0-1.4,1.13-2.53,2.53-2.53h3.56
		c1.4,0,2.53,1.13,2.53,2.53v0.17C387.59,199.72,386.45,200.85,385.06,200.85z"/>
	<circle class="st0" cx="415.64" cy="198.18" r="2.65"/>
	<circle class="st0" cx="380.73" cy="198.18" r="2.65"/>
	<path class="st3" d="M398.19,233.38l-0.39-3.1c0.21-0.03,0.43-0.05,0.67-0.08c1.97-0.22,4.67-0.52,7.55-3.07
		c1.92-1.7,3.24-4.18,3.6-6.78l3.09,0.44c-0.47,3.33-2.15,6.5-4.62,8.68c-3.62,3.21-7.02,3.58-9.27,3.83L398.19,233.38z"/>
	<rect x="376.48" y="219.59" class="st1" width="75.19" height="3.48"/>
</g>
<g>
	<path class="st4" d="M484.54,153.91l-58.49-3.26l-155.5,3.37l-112.5,2.71c-2.09,0.05-3.77,1.76-3.77,3.86l0,0
		c0,2.09,1.67,3.79,3.75,3.86l112.52,3.13l155.5,3.21l58.49-3.32V153.91z"/>
	<path class="st0" d="M261.41,165.68l-0.01-9.77c0-1.52,1.24-2.76,2.75-2.76h6.41c1.52,0,2.76,1.24,2.76,2.75l0.01,9.77
		c0,1.52-1.24,2.76-2.75,2.76h-6.41C262.65,168.45,261.41,167.21,261.41,165.68z"/>
	<path class="st0" d="M153.99,163.25v-5.46c0-1.3,1.05-2.35,2.35-2.35h6.48c1.3,0,2.35,1.05,2.35,2.35v5.46
		c0,1.3-1.05,2.35-2.35,2.35h-6.48C155.04,165.61,153.99,164.55,153.99,163.25z"/>
	<polygon class="st0" points="593.98,171.82 593.97,149.43 484.19,153.87 484.2,167.49 	"/>
	<path class="st0" d="M476.75,187.43l-0.03-52.61c0-1.24,1-2.23,2.23-2.23h5.19c1.24,0,2.23,1,2.23,2.23l0.03,52.61
		c0,1.24-1,2.23-2.23,2.23h-5.19C477.75,189.66,476.75,188.66,476.75,187.43z"/>
</g>
<path class="st7" d="M561.92,134.44l-18.83,1.3c-5.92,0.41-9.75,6.44-7.62,11.97l2.33,6.03c1.67,4.32,6.06,6.96,10.66,6.41
	l13.87-1.67c5.02-0.6,8.82-4.81,8.92-9.86l0.1-5.21C571.44,138.23,567.08,134.08,561.92,134.44z"/>
<path class="st7" d="M553.63,181.7l-13.83-5.38c-5.09-1.98-8.63-6.69-9.11-12.13l-1.57-17.74c-0.2-2.32,2.14-4,4.27-3.07l1.92,0.84
	c0.68,0.3,1.23,0.84,1.55,1.51L553.63,181.7z"/>
<path class="st10" d="M425.52,347.05c-9.4,0-20.44-1.77-31.63-7.71c-13.12-6.97-23.95-18.61-30.48-32.78
	c-4.79-10.39-0.25-22.69,10.13-27.48c10.39-4.79,22.69-0.25,27.48,10.13c1.6,3.47,5.33,9.84,12.3,13.55
	c9.2,4.89,19.05,2.42,24.93,0.95c11.47-2.88,18.81-9.54,21.95-12.38c18.51-16.76,21.53-41.92,21.96-51.95
	c0.5-11.43,10.18-20.27,21.59-19.79c11.43,0.5,20.29,10.17,19.79,21.59c-0.67,15.23-5.46,53.6-35.54,80.84
	c-4.48,4.06-18.14,16.44-39.65,21.85C443.9,344.98,435.66,347.05,425.52,347.05z"/>
<g>
	<path class="st7" d="M527.38,138.71l-18.98-3.9c-5.6-1.15-10.79,3.25-10.58,8.96l1.19,32.46l25.8,2.03l9.18-28.19
		C535.62,145.08,532.54,139.77,527.38,138.71z"/>
	<polygon class="st7" points="498.59,169.4 472.71,249.24 528.87,258.67 526.56,171.28 	"/>
</g>
<polygon class="st0" points="376.92,259.58 346.5,290 372.58,300.43 404.73,267.41 "/>
<g>
	<g>
		<circle class="st7" cx="211.94" cy="342.23" r="11.84"/>
	</g>
	<g>
		<path class="st7" d="M211.94,369.36c-16.62,0-31.16-1.97-42.03-5.68c-7.06-2.42-13.05-5.62-17.31-9.27
			c-4.53-3.88-6.93-8.09-6.93-12.18c0-7.83,8.6-15.49,22.99-20.51c11.8-4.12,27.17-6.38,43.28-6.38c15.8,0,30.97,2.23,42.71,6.27
			c6.86,2.36,12.65,5.42,16.75,8.83c4.46,3.72,6.81,7.8,6.81,11.8c0,8.14-9.61,16.37-25.08,21.5
			C242.16,367.36,227.54,369.36,211.94,369.36z M211.94,321c-15.26,0-30.36,2.21-41.42,6.07c-13.26,4.62-19.19,10.95-19.19,15.17
			c0,4.39,6.39,11.3,20.41,16.09c10.29,3.52,24.2,5.38,40.21,5.38c15.01,0,29-1.9,39.41-5.35c14.56-4.83,21.2-11.74,21.2-16.12
			c0-2.23-1.7-4.88-4.78-7.45c-3.57-2.98-8.75-5.68-14.96-7.83C241.64,323.11,227.13,321,211.94,321z"/>
	</g>
	<g>
		<path class="st7" d="M185.05,401.25c-2.4,0-4.52-0.52-6.32-1.55c-6.78-3.91-9.13-15.19-6.28-30.17
			c2.33-12.28,8.04-26.73,16.09-40.68l0,0c7.9-13.69,17.4-25.71,26.76-33.86c5.47-4.76,11.02-8.25,16.02-10.1
			c5.45-2,10.16-2.01,13.62-0.01c7.05,4.06,9.38,16.5,6.09,32.46c-2.33,11.31-7.9,24.99-15.7,38.5
			c-8.3,14.4-17.27,26.01-25.92,33.57c-5.62,4.91-11.39,8.49-16.68,10.36C189.97,400.76,187.39,401.25,185.05,401.25z
			 M193.44,331.68c-7.62,13.22-13.25,27.4-15.44,38.91c-2.62,13.8-0.11,22.1,3.55,24.2c3.8,2.19,12.98,0.11,24.13-9.64
			c8.19-7.16,16.75-18.27,24.74-32.14c7.5-13,12.84-26.07,15.06-36.81c3.1-15.03,0.42-24.23-3.38-26.42
			c-1.93-1.12-5.07-0.96-8.84,0.42c-4.36,1.6-9.29,4.74-14.25,9.06C210.11,307.01,201.04,318.52,193.44,331.68L193.44,331.68z"/>
	</g>
	<g>
		<path class="st7" d="M238.81,401.31c-6.41,0-14.56-3.88-23.04-11.18c-9.48-8.16-19.14-20.32-27.21-34.26l0,0
			c-7.92-13.68-13.59-27.92-15.98-40.1c-1.39-7.12-1.65-13.66-0.74-18.92c0.98-5.73,3.34-9.81,6.79-11.81
			c7.04-4.07,18.98,0.11,31.17,10.94c8.64,7.67,17.7,19.33,25.51,32.82c8.33,14.39,13.91,27.95,16.14,39.22
			c1.45,7.32,1.67,14.11,0.65,19.62c-1.09,5.87-3.53,10.05-7.07,12.1C243.24,400.81,241.14,401.31,238.81,401.31z M193.46,353.05
			c7.64,13.21,17.12,25.17,26,32.8c10.64,9.16,19.1,11.13,22.74,9.01c3.8-2.2,6.58-11.18,3.7-25.72
			c-2.11-10.67-7.47-23.63-15.49-37.49c-7.52-12.99-16.17-24.15-24.37-31.43c-11.47-10.19-20.78-12.46-24.58-10.27
			c-1.93,1.12-3.37,3.91-4.05,7.87c-0.79,4.59-0.54,10.42,0.72,16.88C180.41,326.28,185.85,339.9,193.46,353.05L193.46,353.05z"/>
	</g>
</g>
</svg>