<svg xmlns="http://www.w3.org/2000/svg" width="66.004" height="67.743" viewBox="0 0 66.004 67.743"><defs><style>.a{fill:#5c2d91;}.b{fill:#424242;}.c,.d,.e{stroke:none;}.d{fill:#f6f6f6;}.e{fill:#fff;}</style></defs><g transform="translate(3 6.712)"><g class="a" transform="translate(-176.322 -235.259)"><path class="c" d="M 199.8683166503906 291.32958984375 C 197.6817169189453 291.3296508789062 195.4318695068359 291.1106872558594 193.1812591552734 290.6788024902344 C 190.8603057861328 290.2334899902344 188.6228332519531 289.4084777832031 186.5310363769531 288.2266845703125 C 184.4965362548828 287.0772705078125 182.6479187011719 285.6184997558594 181.0365447998047 283.8909301757812 C 179.4251251220703 282.163330078125 178.0955047607422 280.2146301269531 177.0846405029297 278.0989685058594 C 176.0452575683594 275.9236755371094 175.3690185546875 273.6244201660156 175.0746459960938 271.2651062011719 C 174.42822265625 266.0851440429688 175.0334930419922 261.3978271484375 176.8736724853516 257.3333740234375 C 178.7465057373047 253.19677734375 181.9156494140625 249.6655731201172 186.2930297851562 246.8378753662109 C 188.1269836425781 245.6530303955078 190.1671295166016 244.7635498046875 192.3567657470703 244.1941680908203 C 194.3458251953125 243.6769561767578 196.5270080566406 243.406982421875 198.8397216796875 243.3917541503906 C 199.1960906982422 243.3894195556641 199.57666015625 243.3882904052734 200.0032196044922 243.3882904052734 C 200.5221557617188 243.3882904052734 201.0411834716797 243.3899383544922 201.5602264404297 243.3916168212891 C 202.0760650634766 243.3932800292969 202.5919189453125 243.3949432373047 203.1077270507812 243.3949432373047 C 204.2798461914062 243.3949432373047 205.1774597167969 243.3860015869141 206.0181884765625 243.365966796875 C 208.4080963134766 243.3090667724609 210.67236328125 242.8241882324219 212.7481231689453 241.9247894287109 C 214.7870788574219 241.0413360595703 216.7120056152344 239.7289581298828 218.4694213867188 238.0241241455078 C 218.6610565185547 237.8381805419922 218.8521270751953 237.6712036132812 219.0940093994141 237.4598083496094 C 219.2187194824219 237.3507995605469 219.3610534667969 237.2264099121094 219.5293273925781 237.0767669677734 L 222.2815551757812 234.6291809082031 L 222.0224151611328 238.3031768798828 C 221.8463134765625 240.8001708984375 221.2702026367188 243.1466674804688 220.2010192871094 245.6362457275391 C 222.0560607910156 245.0036163330078 223.8514099121094 243.9731292724609 225.7004547119141 242.493408203125 C 228.16943359375 240.5133209228516 230.0314483642578 238.0177917480469 231.55908203125 234.6407775878906 L 232.7975158691406 231.9031219482422 L 234.2412567138672 234.5382995605469 C 234.3690185546875 234.7714996337891 234.4805755615234 234.9689788818359 234.5789947509766 235.1432189941406 C 234.7726898193359 235.4861297607422 234.9256896972656 235.7569732666016 235.0674743652344 236.0599670410156 C 238.3883819580078 243.1563568115234 238.7094268798828 250.7082214355469 236.0216674804688 258.5057678222656 C 233.6696319580078 265.3309936523438 230.0342864990234 270.8853759765625 225.2166595458984 275.0145263671875 C 220.4224090576172 279.1236572265625 214.3844757080078 281.8834838867188 207.2706298828125 283.2173767089844 C 205.1111297607422 283.6222229003906 203.1298980712891 283.8190307617188 201.2136993408203 283.8190612792969 C 198.7925415039062 283.819091796875 196.4761962890625 283.4883728027344 194.3290252685547 282.8360900878906 C 192.5149688720703 282.2816467285156 190.8283081054688 281.4309387207031 189.3134765625 280.3068237304688 C 187.8382263183594 279.2121276855469 186.5630187988281 277.8866271972656 185.5233001708984 276.3671264648438 C 184.4835815429688 274.84765625 183.7099456787109 273.178955078125 183.2239074707031 271.4073486328125 C 182.7248229980469 269.5882263183594 182.5427856445312 267.7079467773438 182.6828460693359 265.8187866210938 C 182.9314270019531 262.5264587402344 184.4423522949219 259.2422485351562 186.9374237060547 256.5690612792969 C 189.4264373779297 253.9023895263672 192.6193084716797 252.1391143798828 195.9278259277344 251.6040496826172 C 196.8991394042969 251.4469451904297 197.8789672851562 251.3672790527344 198.8400268554688 251.3672790527344 C 200.772216796875 251.3672790527344 202.6491088867188 251.6835784912109 204.4185638427734 252.3073883056641 C 206.1659393310547 252.9234161376953 207.7726287841797 253.8260955810547 209.1939697265625 254.9903411865234 C 212.1186828613281 257.3860778808594 214.07861328125 260.7163696289062 214.8618774414062 264.6212463378906 L 214.8651580810547 264.6376342773438 L 214.8680877685547 264.6541137695312 C 215.1329498291016 266.1465759277344 215.1703491210938 267.66552734375 214.979248046875 269.1690063476562 C 214.6959381103516 271.6823120117188 212.8228607177734 273.4366149902344 210.419677734375 273.4367980957031 C 210.2958679199219 273.4367980957031 210.1698455810547 273.4319458007812 210.0450897216797 273.4223327636719 C 207.5343933105469 273.229248046875 205.8021240234375 271.2886352539062 205.7344970703125 268.5933532714844 C 205.6795806884766 266.4017639160156 205.6410369873047 264.4246520996094 205.7261657714844 262.4207763671875 C 205.7649383544922 261.5076904296875 205.4972076416016 260.7031860351562 204.9722747802734 260.155517578125 C 204.494384765625 259.6568908691406 203.8238067626953 259.3933410644531 203.0330352783203 259.3933410644531 C 202.9471282958984 259.3933410644531 202.8587493896484 259.3965148925781 202.7703247070312 259.4027099609375 C 202.0466003417969 259.4533996582031 201.3442993164062 259.4602355957031 200.7527160644531 259.4602355957031 C 200.7518005371094 259.4602355957031 200.7508697509766 259.4602355957031 200.7499542236328 259.4602355957031 C 200.5125732421875 259.4602355957031 200.2751617431641 259.4589538574219 200.0378265380859 259.4576721191406 C 199.8052520751953 259.4564208984375 199.5727691650391 259.4551391601562 199.3404388427734 259.4551391601562 C 198.3944396972656 259.4551391601562 197.3901672363281 259.4760131835938 196.453369140625 259.6272888183594 C 194.8840179443359 259.8971557617188 193.4698791503906 260.6450500488281 192.3633422851562 261.7904357910156 C 191.2553100585938 262.9373474121094 190.5562286376953 264.3788452148438 190.3416442871094 265.9591064453125 L 190.3407287597656 265.9657897949219 L 190.3397674560547 265.9725036621094 C 189.862060546875 269.2669677734375 191.5360107421875 272.4916687011719 194.5051879882812 273.9967956542969 C 195.6154479980469 274.5583190917969 196.7899017333984 274.8433532714844 197.9947052001953 274.8433532714844 C 199.9891662597656 274.8433532714844 201.9149017333984 274.039794921875 203.4171752929688 272.5806884765625 C 203.518798828125 272.48193359375 203.6218566894531 272.3841857910156 203.7421722412109 272.2701416015625 C 203.7980194091797 272.2172241210938 203.8577880859375 272.1605834960938 203.9232482910156 272.0982666015625 L 204.8923797607422 271.1757507324219 L 205.919189453125 272.0335693359375 C 206.0589447021484 272.1503295898438 206.1943664550781 272.27587890625 206.3216857910156 272.4066772460938 L 206.3495178222656 272.4352722167969 L 206.3757781982422 272.4653015136719 C 207.5460357666016 273.802978515625 208.7957153320312 274.4532470703125 210.1962432861328 274.4532470703125 C 210.7794494628906 274.4532470703125 211.4039916992188 274.3385009765625 212.0525207519531 274.1121826171875 C 213.2723693847656 273.6862487792969 214.2258453369141 273.0433654785156 214.8861999511719 272.2014770507812 C 215.5454559326172 271.3610229492188 215.9106903076172 270.3181457519531 215.9717712402344 269.1018371582031 C 216.1951141357422 264.6197509765625 215.0082855224609 260.4857788085938 212.5395965576172 257.1474914550781 C 211.3515777587891 255.541015625 209.8981781005859 254.1676940917969 208.2197570800781 253.0656890869141 C 206.5119476318359 251.9443969726562 204.6047058105469 251.1266479492188 202.5510406494141 250.6351318359375 C 201.2885589599609 250.3329620361328 199.9947814941406 250.1797485351562 198.7056579589844 250.1797485351562 C 194.71875 250.1797485351562 190.8127288818359 251.6365051269531 187.7071228027344 254.2816467285156 C 184.5507965087891 256.9700012207031 182.4688262939453 260.6980285644531 181.8447265625 264.7789306640625 C 181.4822692871094 267.1488342285156 181.62939453125 269.5303955078125 182.281982421875 271.8575439453125 C 182.9107971191406 274.0998840332031 183.9722595214844 276.1748962402344 185.4369049072266 278.0249328613281 C 186.8910980224609 279.8617858886719 188.6498565673828 281.359130859375 190.6643371582031 282.4753723144531 C 192.7526092529297 283.6325073242188 195.0056457519531 284.3146362304688 197.3609161376953 284.5028686523438 C 198.5524749755859 284.5980834960938 199.7456665039062 284.6463623046875 200.9073791503906 284.6463623046875 C 204.5349884033203 284.6463623046875 208.0713348388672 284.1750793457031 211.418212890625 283.2455749511719 C 214.80419921875 282.30517578125 218.1017761230469 280.866455078125 221.2194519042969 278.9693603515625 C 221.5296020507812 278.763671875 221.8873291015625 278.6359252929688 222.2580108642578 278.5990905761719 L 226.1380615234375 278.2133483886719 L 223.5169067382812 281.10009765625 C 221.388427734375 283.4442443847656 218.9093475341797 285.4183349609375 216.1482086181641 286.9677124023438 C 211.0292663574219 289.862060546875 205.5521850585938 291.3294677734375 199.8683166503906 291.32958984375 Z M 197.9823913574219 273.92431640625 C 197.982177734375 273.92431640625 197.9824981689453 273.92431640625 197.9822998046875 273.92431640625 C 197.6386413574219 273.92431640625 197.2896270751953 273.9005737304688 196.9449462890625 273.853759765625 C 195.3235473632812 273.6334533691406 193.8278656005859 272.7864074707031 192.7333831787109 271.4686584472656 C 191.6434326171875 270.1563720703125 191.0764770507812 268.5272216796875 191.1369476318359 266.8813171386719 C 191.1998748779297 265.1772766113281 191.8925323486328 263.5533752441406 193.0873565673828 262.3084716796875 C 194.3008422851562 261.0441284179688 195.8990325927734 260.3097839355469 197.5875396728516 260.2406921386719 C 198.1243133544922 260.21875 198.6916351318359 260.208984375 199.4271240234375 260.208984375 C 199.7479400634766 260.208984375 200.0688629150391 260.2107849121094 200.3897857666016 260.2126159667969 C 200.7051239013672 260.2143859863281 201.0204467773438 260.2161865234375 201.3357086181641 260.2161865234375 C 201.8066253662109 260.2161865234375 202.1926116943359 260.2120971679688 202.5504150390625 260.2032775878906 C 202.5816040039062 260.2025146484375 202.6125946044922 260.2021179199219 202.6429290771484 260.2021179199219 C 203.6517944335938 260.2021179199219 204.2039489746094 260.6553344726562 204.4894866943359 261.0355529785156 C 204.8877868652344 261.5658874511719 204.94091796875 262.1649475097656 204.9426879882812 262.6276245117188 C 204.9488677978516 264.3883361816406 204.9233093261719 267.5147399902344 204.6825256347656 268.6763305664062 C 204.0452575683594 271.7655334472656 201.2896881103516 273.92431640625 197.9823913574219 273.92431640625 Z"/><path class="d" d="M 232.9257507324219 235.259033203125 C 231.3537445068359 238.7341003417969 229.3529357910156 241.4869689941406 226.6376800537109 243.66455078125 C 223.9553833007812 245.8110961914062 220.9939727783203 247.359130859375 217.4703674316406 247.791015625 C 219.0933227539062 244.8427124023438 220.2695617675781 241.83544921875 220.5261383056641 238.1976318359375 C 220.0418243408203 238.6283569335938 219.7677764892578 238.8544006347656 219.5138549804688 239.1007690429688 C 215.7620544433594 242.7402954101562 211.3006286621094 244.7406311035156 206.0539245605469 244.8655395507812 C 205.0717926025391 244.8889465332031 204.0894012451172 244.8949279785156 203.1066436767578 244.8949279785156 C 202.0721435546875 244.8949279785156 201.0374450683594 244.8882751464844 200.0030517578125 244.8882751464844 C 199.6185760498047 244.8882751464844 199.2339782714844 244.8891906738281 198.8495941162109 244.8917236328125 C 194.6522674560547 244.9193725585938 190.6535797119141 245.8065185546875 187.1069488525391 248.0978393554688 C 178.7397308349609 253.5028991699219 175.3439636230469 261.3101501464844 176.5631103515625 271.0794067382812 C 177.6804046630859 280.0347290039062 184.6664581298828 287.5177307128906 193.4639282226562 289.2056884765625 C 195.6262817382812 289.6206359863281 197.7617645263672 289.82958984375 199.8682861328125 289.82958984375 C 205.2646179199219 289.82958984375 210.4666290283203 288.4573974609375 215.4120941162109 285.6607666015625 C 218.0281372070312 284.1930541992188 220.3899688720703 282.3124694824219 222.4064025878906 280.0917358398438 C 222.2713165283203 280.1051635742188 222.1420135498047 280.1532897949219 222.0309906005859 280.2314147949219 C 215.4617309570312 284.2366638183594 208.4111328125 286.1463623046875 200.9073944091797 286.1463623046875 C 199.6974639892578 286.1463623046875 198.4747619628906 286.0966491699219 197.2414398193359 285.9980773925781 C 186.6675109863281 285.1531372070312 178.7469940185547 275.1115417480469 180.3619689941406 264.5521850585938 C 181.7796325683594 255.2822265625 189.8231658935547 248.6797485351562 198.7056732177734 248.6797485351562 C 200.0906219482422 248.6797485351562 201.4963989257812 248.84033203125 202.9001770019531 249.1763305664062 C 211.899658203125 251.3301696777344 217.9653472900391 259.2336730957031 217.4698791503906 269.1770629882812 C 217.3139495849609 272.2820739746094 215.5243835449219 274.4887390136719 212.5467071533203 275.5284423828125 C 211.7272186279297 275.8143920898438 210.9437713623047 275.9532470703125 210.1962432861328 275.9532470703125 C 208.3178100585938 275.9532470703125 206.6669464111328 275.0762329101562 205.246826171875 273.4529418945312 C 205.155029296875 273.358642578125 205.0584716796875 273.2691040039062 204.9574737548828 273.1847229003906 C 204.7559509277344 273.3765563964844 204.6077880859375 273.5152587890625 204.4622650146484 273.6566772460938 C 202.6421966552734 275.4244689941406 200.3383636474609 276.3433532714844 197.9947052001953 276.3433532714844 C 196.5877838134766 276.3433532714844 195.1664733886719 276.0121765136719 193.8269653320312 275.334716796875 C 190.2862548828125 273.5398559570312 188.2856292724609 269.6858520507812 188.8552856445312 265.7572631835938 C 189.3807678222656 261.8873291015625 192.3573150634766 258.8062744140625 196.2068176269531 258.1476745605469 C 197.2355194091797 257.9808654785156 198.2853698730469 257.9551391601562 199.3403930664062 257.9551391601562 C 199.8105773925781 257.9551391601562 200.2818450927734 257.9602355957031 200.7526397705078 257.9602355957031 C 201.3921813964844 257.9602355957031 202.0309600830078 257.9508361816406 202.6654052734375 257.9063720703125 C 202.7898559570312 257.8976440429688 202.9123382568359 257.8933410644531 203.0330200195312 257.8933410644531 C 205.632080078125 257.8933410644531 207.3351440429688 259.8859558105469 207.2248229980469 262.4844360351562 C 207.1389617919922 264.5055847167969 207.1833343505859 266.5328369140625 207.2340240478516 268.5557250976562 C 207.2830047607422 270.5077514648438 208.4415435791016 271.7945861816406 210.1600494384766 271.9267578125 C 210.2473754882812 271.9334716796875 210.3337554931641 271.936767578125 210.4195404052734 271.936767578125 C 211.9952087402344 271.936767578125 213.2888336181641 270.814697265625 213.4898529052734 268.9905395507812 C 213.6632080078125 267.6352844238281 213.6299133300781 266.2615051269531 213.3911590576172 264.9162292480469 C 211.9250030517578 257.6068725585938 205.9804534912109 252.8668823242188 198.8400268554688 252.8672790527344 C 197.96533203125 252.8673095703125 197.0718078613281 252.9385070800781 196.1672973632812 253.0848083496094 C 190.0024108886719 254.0818176269531 184.6395263671875 259.826904296875 184.1787414550781 265.9296875 C 183.6599884033203 272.9265747070312 188.0553588867188 279.35009765625 194.7650451660156 281.4008483886719 C 196.8955383300781 282.0480651855469 199.0541076660156 282.3190612792969 201.2136840820312 282.3190612792969 C 203.1464538574219 282.3190612792969 205.0800933837891 282.1019287109375 206.9941864013672 281.7430725097656 C 220.7313079833984 279.1672668457031 230.0441131591797 271.2477111816406 234.6035461425781 258.0169677734375 C 237.0702056884766 250.8608703613281 236.9758758544922 243.6769409179688 233.7088623046875 236.6957092285156 C 233.5264892578125 236.3059692382812 233.2977905273438 235.9380798339844 232.9257507324219 235.259033203125 M 202.6429290771484 261.7021179199219 C 202.624755859375 261.7021179199219 202.6063079833984 261.7023620605469 202.5873260498047 261.7028198242188 C 202.1704254150391 261.7130737304688 201.7530670166016 261.7161865234375 201.3358459472656 261.7161865234375 C 200.6995086669922 261.7161865234375 200.0631561279297 261.708984375 199.4269409179688 261.708984375 C 198.8338165283203 261.708984375 198.2410125732422 261.7152404785156 197.6488647460938 261.7394409179688 C 194.9529876708984 261.8497619628906 192.7375640869141 264.1840209960938 192.6359405517578 266.9364013671875 C 192.5389556884766 269.5759887695312 194.5661773681641 272.0167541503906 197.1468353271484 272.3674011230469 C 197.428466796875 272.4056396484375 197.7075500488281 272.42431640625 197.9822998046875 272.42431640625 C 200.5280914306641 272.42431640625 202.7080841064453 270.8231201171875 203.2137451171875 268.3718872070312 C 203.4477996826172 267.2427062988281 203.4456176757812 263.4669189453125 203.4426879882812 262.6333618164062 C 203.4403228759766 262.0163269042969 203.3046112060547 261.7021484375 202.6429290771484 261.7021179199219 M 232.6692199707031 228.5473327636719 L 235.5567321777344 233.8175354003906 C 235.6798095703125 234.0421447753906 235.7887878417969 234.235107421875 235.8849639892578 234.4053344726562 C 236.086181640625 234.7615356445312 236.2599639892578 235.0691833496094 236.4260864257812 235.4242248535156 C 239.9178314208984 242.8856811523438 240.2588958740234 250.8159484863281 237.4397735595703 258.9945983886719 C 234.9997253417969 266.0752563476562 231.2156677246094 271.848388671875 226.1928100585938 276.1534423828125 C 225.9470062255859 276.3641357421875 225.6985168457031 276.571044921875 225.4465484619141 276.77490234375 L 229.8693084716797 276.33544921875 L 224.6274261474609 282.1084289550781 C 222.3910064697266 284.5714416503906 219.7861175537109 286.6459045410156 216.8852081298828 288.274169921875 C 211.5385894775391 291.2968139648438 205.8130798339844 292.82958984375 199.8682861328125 292.82958984375 C 197.5868377685547 292.82958984375 195.2418823242188 292.6015930175781 192.8985748291016 292.1519165039062 C 190.4175415039062 291.6759033203125 188.0269317626953 290.7946472167969 185.7931823730469 289.5326538085938 C 183.6250915527344 288.3077392578125 181.6556701660156 286.7538452148438 179.9396362304688 284.9140625 C 178.2239074707031 283.0746459960938 176.8079986572266 280.999267578125 175.731201171875 278.7456665039062 C 174.6222229003906 276.4246826171875 173.9005432128906 273.9703369140625 173.5861968994141 271.4508056640625 C 172.905029296875 265.9926147460938 173.5513458251953 261.0346374511719 175.5071868896484 256.7147216796875 C 177.5007781982422 252.3114013671875 180.8558197021484 248.564453125 185.4791107177734 245.577880859375 C 187.4475555419922 244.30615234375 189.6345672607422 243.3521728515625 191.9792633056641 242.7424621582031 C 194.0882873535156 242.1940612792969 196.3931427001953 241.9078369140625 198.829833984375 241.8917846679688 C 199.1897430419922 241.8894348144531 199.573486328125 241.8882751464844 200.0030517578125 241.8882751464844 C 200.5234527587891 241.8882751464844 201.0439300537109 241.8899536132812 201.5644226074219 241.8916320800781 C 202.0785064697266 241.8932800292969 202.5926055908203 241.8949279785156 203.1066436767578 241.8949279785156 C 204.266845703125 241.8949279785156 205.1537780761719 241.8861389160156 205.9824676513672 241.8663940429688 C 210.3779754638672 241.7617492675781 214.1208343505859 240.1527709960938 217.4250030517578 236.9474792480469 C 217.6445159912109 236.7344970703125 217.8586730957031 236.5473327636719 218.1066436767578 236.3305969238281 C 218.2286224365234 236.2239685058594 218.3678436279297 236.1023254394531 218.532470703125 235.9559326171875 L 224.0369873046875 231.0604858398438 L 223.5187072753906 238.40869140625 C 223.4148712158203 239.8809204101562 223.1822357177734 241.3011779785156 222.8041687011719 242.7220458984375 C 223.4522247314453 242.3161010742188 224.1032562255859 241.8503723144531 224.7632293701172 241.3222351074219 C 227.0398254394531 239.4964599609375 228.7657775878906 237.1763000488281 230.1923980712891 234.0225830078125 L 232.6692199707031 228.5473327636719 Z"/></g><g transform="translate(0 34)"><g class="b" transform="translate(-4 26)"><path class="c" d="M 16 -0.4687449932098389 C 14.29510307312012 -0.4687449932098389 12.66065216064453 -0.578462541103363 11.14208316802979 -0.7948324680328369 C 9.601724624633789 -0.9934049248695374 8.230043411254883 -1.287176966667175 7.065149784088135 -1.667994976043701 C 5.818439960479736 -2.075584888458252 4.842549800872803 -2.544934988021851 4.081709861755371 -3.102885007858276 C 2.824150085449219 -4.025104999542236 2.528059959411621 -5.054065227508545 2.501110076904297 -5.754855155944824 L 2.5 -5.783665180206299 L 2.5 -5.812495231628418 L 2.5 -11.21874523162842 L 2.5 -11.24999523162842 L 3.890202045440674 -11.24999523162842 C 2.793547630310059 -12.13300609588623 2.526635408401489 -13.09110641479492 2.501110076904297 -13.75485515594482 L 2.5 -13.78366470336914 L 2.5 -13.81249523162842 L 2.5 -19.2187442779541 L 2.5 -19.2499942779541 L 4.317618846893311 -19.2499942779541 C 4.23677396774292 -19.30420112609863 4.158185958862305 -19.35930252075195 4.081709861755371 -19.41538429260254 L 4.078330039978027 -19.41785430908203 L 4.07496976852417 -19.42035484313965 C 2.773240089416504 -20.38616561889648 2.5 -21.42423439025879 2.5 -22.1249942779541 L 2.5 -22.140625 L 2.5 -22.1562442779541 C 2.5 -22.85028457641602 2.764549970626831 -23.88043594360352 4.02485990524292 -24.84666442871094 L 4.03754997253418 -24.85638427734375 L 4.050449848175049 -24.8658447265625 C 4.812469959259033 -25.42467498779297 5.7947998046875 -25.89445495605469 7.053549766540527 -26.30204582214355 C 8.227042198181152 -26.68204498291016 9.601933479309082 -26.97527694702148 11.14028358459473 -27.17367553710938 C 12.63888549804688 -27.39021873474121 14.273756980896 -27.4999942779541 16 -27.4999942779541 C 17.70507049560547 -27.4999942779541 19.33943939208984 -27.39028930664062 20.8580265045166 -27.17389297485352 C 22.39707183837891 -26.97549247741699 23.77253723144531 -26.68217468261719 24.94647979736328 -26.30204582214355 C 26.2052001953125 -25.89446449279785 27.18751907348633 -25.42467498779297 27.94955062866211 -24.8658447265625 L 27.96245002746582 -24.85638427734375 L 27.97513961791992 -24.84666442871094 C 29.23545074462891 -23.88043594360352 29.5 -22.85028457641602 29.5 -22.1562442779541 L 29.5 -22.140625 L 29.5 -22.1249942779541 C 29.5 -21.42423439025879 29.22676086425781 -20.38616561889648 27.92502975463867 -19.42035484313965 L 27.92167091369629 -19.41785430908203 L 27.91828918457031 -19.41538429260254 C 27.84414672851562 -19.36101341247559 27.76797676086426 -19.30753707885742 27.68972969055176 -19.25492858886719 L 27.93656158447266 -19.2499942779541 L 29.5 -19.2499942779541 L 29.5 -19.2187442779541 L 29.5 -13.81249523162842 C 29.5 -13.12943363189697 29.25285148620605 -12.14722728729248 28.11441993713379 -11.24999523162842 L 29.5 -11.24999523162842 L 29.5 -11.21874523162842 L 29.5 -5.812495231628418 C 29.5 -5.090187072753906 29.22359848022461 -4.033349514007568 27.90919303894043 -3.096225738525391 C 27.14967155456543 -2.541188955307007 26.17661476135254 -2.073967933654785 24.93486022949219 -1.668004989624023 C 23.76995658874512 -1.287176966667175 22.39827537536621 -0.9934049248695374 20.85791778564453 -0.7948324680328369 C 19.33934783935547 -0.578462541103363 17.70489692687988 -0.4687449932098389 16 -0.4687449932098389 Z"/><path class="e" d="M 16 -26.0000057220459 C 14.33333015441895 -26.0000057220459 12.78125 -25.89583587646484 11.34375 -25.6875057220459 C 9.885419845581055 -25.5000057220459 8.609369277954102 -25.22916412353516 7.515619277954102 -24.8750057220459 C 6.421869277954102 -24.52083587646484 5.5625 -24.11458587646484 4.9375 -23.65625381469727 C 4.3125 -23.17708587646484 4 -22.67708587646484 4 -22.15625381469727 C 4 -22.15625381469727 4 -22.15104484558105 4 -22.140625 C 4 -22.13020515441895 4 -22.12500381469727 4 -22.12500381469727 C 4 -21.60416412353516 4.322919845581055 -21.10416412353516 4.96875 -20.62500381469727 C 5.59375 -20.16666412353516 6.447919845581055 -19.765625 7.53125 -19.421875 C 8.614580154418945 -19.078125 9.885419845581055 -18.80208587646484 11.34375 -18.59375381469727 C 12.80208015441895 -18.40625381469727 14.35416984558105 -18.31250381469727 16 -18.31250381469727 C 17.64583015441895 -18.31250381469727 19.19791984558105 -18.40625381469727 20.65625 -18.59375381469727 C 22.11458015441895 -18.80208587646484 23.38541984558105 -19.078125 24.46875 -19.421875 C 25.55208015441895 -19.765625 26.40625 -20.16666412353516 27.03125 -20.62500381469727 C 27.67708015441895 -21.10416412353516 28 -21.60416412353516 28 -22.12500381469727 C 28 -22.12500381469727 28 -22.13020515441895 28 -22.140625 C 28 -22.15104484558105 28 -22.15625381469727 28 -22.15625381469727 C 28 -22.67708587646484 27.6875 -23.17708587646484 27.0625 -23.65625381469727 C 26.4375 -24.11458587646484 25.57812118530273 -24.52083587646484 24.48437118530273 -24.8750057220459 C 23.39062118530273 -25.22916412353516 22.11458015441895 -25.5000057220459 20.65625 -25.6875057220459 C 19.19791984558105 -25.89583587646484 17.64583015441895 -26.0000057220459 16 -26.0000057220459 M 4 -19.25000381469727 L 4 -13.81250476837158 C 4.020830154418945 -13.27083492279053 4.34375 -12.77083492279053 4.96875 -12.31250476837158 C 5.59375 -11.85416412353516 6.447919845581055 -11.44791412353516 7.53125 -11.0937557220459 C 8.614580154418945 -10.73958587646484 9.885419845581055 -10.4687557220459 11.34375 -10.2812557220459 C 12.80208015441895 -10.07291412353516 14.35416984558105 -9.968755722045898 16 -9.968755722045898 C 17.64583015441895 -9.968755722045898 19.19791984558105 -10.07291412353516 20.65625 -10.2812557220459 C 22.11458015441895 -10.4687557220459 23.38541984558105 -10.73958587646484 24.46875 -11.0937557220459 C 25.55208015441895 -11.44791412353516 26.40625 -11.85416412353516 27.03125 -12.31250476837158 C 27.67708015441895 -12.77083492279053 28 -13.27083492279053 28 -13.81250476837158 L 28 -19.21875381469727 C 27.97916984558105 -18.69791412353516 27.65625 -18.20833587646484 27.03125 -17.75000381469727 C 26.40625 -17.27083587646484 25.55208015441895 -16.859375 24.46875 -16.515625 C 23.38541984558105 -16.171875 22.11458015441895 -15.89583492279053 20.65625 -15.68750476837158 C 19.19791984558105 -15.50000476837158 17.64583015441895 -15.40625476837158 16 -15.40625476837158 C 14.35416984558105 -15.40625476837158 12.80208015441895 -15.50000476837158 11.34375 -15.68750476837158 C 9.885419845581055 -15.89583492279053 8.614580154418945 -16.171875 7.53125 -16.515625 C 6.447919845581055 -16.859375 5.59375 -17.27083587646484 4.96875 -17.75000381469727 C 4.322919845581055 -18.20833587646484 4 -18.69791412353516 4 -19.21875381469727 L 4 -19.25000381469727 M 28 -19.25000381469727 L 28 -19.21875381469727 C 28 -19.23958587646484 28 -19.25000381469727 28 -19.25000381469727 M 4 -11.2500057220459 L 4 -5.812505722045898 C 4.020830154418945 -5.270835876464844 4.34375 -4.770835876464844 4.96875 -4.312505722045898 C 5.59375 -3.854164123535156 6.447919845581055 -3.447914123535156 7.53125 -3.093755722045898 C 8.614580154418945 -2.739585876464844 9.885419845581055 -2.468755722045898 11.34375 -2.281255722045898 C 12.80208015441895 -2.072914123535156 14.35416984558105 -1.968755722045898 16 -1.968755722045898 C 17.64583015441895 -1.968755722045898 19.19791984558105 -2.072914123535156 20.65625 -2.281255722045898 C 22.11458015441895 -2.468755722045898 23.38541984558105 -2.739585876464844 24.46875 -3.093755722045898 C 25.55208015441895 -3.447914123535156 26.40625 -3.854164123535156 27.03125 -4.312505722045898 C 27.67708015441895 -4.770835876464844 28 -5.270835876464844 28 -5.812505722045898 L 28 -11.2187557220459 C 27.97916984558105 -10.69791412353516 27.65625 -10.20833587646484 27.03125 -9.750005722045898 C 26.40625 -9.270835876464844 25.55208015441895 -8.859375 24.46875 -8.515625 C 23.38541984558105 -8.171875 22.11458015441895 -7.895835876464844 20.65625 -7.687505722045898 C 19.19791984558105 -7.500005722045898 17.64583015441895 -7.406255722045898 16 -7.406255722045898 C 14.35416984558105 -7.406255722045898 12.80208015441895 -7.500005722045898 11.34375 -7.687505722045898 C 9.885419845581055 -7.895835876464844 8.614580154418945 -8.171875 7.53125 -8.515625 C 6.447919845581055 -8.859375 5.59375 -9.270835876464844 4.96875 -9.750005722045898 C 4.322919845581055 -10.20833587646484 4 -10.69791412353516 4 -11.2187557220459 L 4 -11.2500057220459 M 28 -11.2500057220459 L 28 -11.2187557220459 C 28 -11.23958587646484 28 -11.2500057220459 28 -11.2500057220459 M 16 -29.0000057220459 C 17.77177047729492 -29.0000057220459 19.47383499145508 -28.88574409484863 21.05946159362793 -28.66035461425781 C 22.68610382080078 -28.45015716552734 24.14924621582031 -28.13687133789062 25.40853881835938 -27.72910499572754 C 26.82207107543945 -27.27139472961426 27.94338035583496 -26.73048400878906 28.83658027648926 -26.07547569274902 L 28.86240005493164 -26.05654525756836 L 28.8878002166748 -26.03706550598145 C 30.6335506439209 -24.69864463806152 31 -23.18791580200195 31 -22.15625381469727 L 31 -22.140625 L 31 -22.12500381469727 C 31 -21.34268188476562 30.78801536560059 -20.2906436920166 29.92527008056641 -19.25000381469727 L 31 -19.25000381469727 L 31 -19.21875381469727 L 31 -13.81250476837158 C 31 -13.21316051483154 30.8660831451416 -12.24283313751221 30.17112922668457 -11.2500057220459 L 31 -11.2500057220459 L 31 -11.2187557220459 L 31 -5.812505722045898 C 31 -4.933277130126953 30.71198272705078 -3.25587272644043 28.78707504272461 -1.879936218261719 C 27.89926910400391 -1.232627868652344 26.79133033752441 -0.6968059539794922 25.40094947814941 -0.2422657012939453 C 24.14962005615234 0.1668300628662109 22.68902206420898 0.4809951782226562 21.0596866607666 0.6915645599365234 C 19.47404861450195 0.9169731140136719 17.77195739746094 1.031244277954102 16 1.031244277954102 C 14.22804260253906 1.031244277954102 12.52595138549805 0.9169731140136719 10.9403133392334 0.6915645599365234 C 9.310977935791016 0.4809951782226562 7.850379943847656 0.1668300628662109 6.599020004272461 -0.2422752380371094 C 5.199100494384766 -0.6999359130859375 4.08551025390625 -1.239994049072266 3.194639205932617 -1.893304824829102 C 1.454410552978516 -3.169464111328125 1.041860580444336 -4.666275024414062 1.002220153808594 -5.697225570678711 L 1 -5.754844665527344 L 1 -5.812505722045898 L 1 -11.2500057220459 L 1.83867073059082 -11.2500057220459 C 1.216241836547852 -12.13705158233643 1.028327941894531 -13.01821041107178 1.002220153808594 -13.69722461700439 L 1 -13.75484466552734 L 1 -13.81250476837158 L 1 -19.25000381469727 L 2.074729919433594 -19.25000381469727 C 1.211984634399414 -20.2906436920166 1 -21.34268188476562 1 -22.12500381469727 L 1 -22.140625 L 1 -22.15625381469727 C 1 -23.18791580200195 1.366449356079102 -24.69864463806152 3.112199783325195 -26.03706550598145 L 3.137599945068359 -26.05654525756836 L 3.163419723510742 -26.07547569274902 C 4.056619644165039 -26.73048400878906 5.177940368652344 -27.27139472961426 6.5914306640625 -27.72910499572754 C 7.85004997253418 -28.13664627075195 9.312215805053711 -28.44980430603027 10.93779182434082 -28.65999794006348 C 12.50395965576172 -28.88562393188477 14.20689010620117 -29.0000057220459 16 -29.0000057220459 Z"/></g></g></g></svg>