<?xml version="1.0" encoding="utf-8"?>
<!-- Generator: Adobe Illustrator 24.0.3, SVG Export Plug-In . SVG Version: 6.00 Build 0)  -->
<svg version="1.1" id="Layer_1" xmlns="http://www.w3.org/2000/svg" xmlns:xlink="http://www.w3.org/1999/xlink" x="0px" y="0px"
	 viewBox="0 0 665.86 698.34" style="enable-background:new 0 0 665.86 698.34;" xml:space="preserve">
<style type="text/css">
	.st0{fill:#0B0204;}
	.st1{fill:#0C2749;}
	.st2{fill:#29B473;}
	.st3{fill:#FFFFFF;}
	.st4{fill:#FAB16A;}
	.st5{fill:#F27043;}
	.st6{fill:#5F318D;}
	.st7{fill:#84CEF2;}
	.st8{fill:none;}
	.st9{fill:#E07E27;}
	.st10{fill:#0A183D;}
	.st11{fill:#E11D37;}
	.st12{fill:#C22035;}
	.st13{fill:#15254B;}
	.st14{fill:#E21E36;}
	.st15{fill:#E9AC6A;}
	.st16{fill:#E8AB6A;}
	.st17{fill:#DA7F27;}
	.st18{fill:#41B983;}
	.st19{fill:#2A374B;}
	.st20{fill:#67C08B;}
	.st21{fill:#16254C;}
	.st22{fill-rule:evenodd;clip-rule:evenodd;fill:#67C08B;}
	.st23{fill-rule:evenodd;clip-rule:evenodd;fill:#0C2749;}
	.st24{fill-rule:evenodd;clip-rule:evenodd;fill:#30495C;}
	.st25{fill-rule:evenodd;clip-rule:evenodd;fill:#FAB16A;}
	.st26{fill-rule:evenodd;clip-rule:evenodd;fill:#DA7F27;}
	.st27{fill-rule:evenodd;clip-rule:evenodd;fill:#F27043;}
</style>
<g>
	<path class="st0" d="M362.3,372.68l-12.37-25.62l7.98-3.85c10.05-4.85,21.56-6.11,32.42-3.54l9.89,2.34l-6.54,27.68l-9.89-2.34
		c-4.53-1.07-9.33-0.54-13.51,1.48L362.3,372.68z"/>
	<path class="st0" d="M214.09,341.42c-4.41,0-7.9-0.53-9.77-0.89l5.43-27.92c1.65,0.32,10.2,1.66,16.37-3.45
		c1.98-1.64,3.54-3.77,4.65-6.34l26.11,11.28c-2.9,6.72-7.14,12.42-12.6,16.95C234.05,339.53,222.43,341.42,214.09,341.42z"/>
	<path class="st1" d="M388.61,371.57c-8.71,0-16.72-5.73-19.22-14.52c-3.03-10.62,3.12-21.69,13.75-24.72
		c9.57-2.73,14.37-8.72,13.18-16.43c-2.21-14.23-25.55-34.81-80.78-33.15c-11.05,0.32-20.26-8.35-20.59-19.39
		c-0.33-11.04,8.35-20.26,19.39-20.59c33.71-1.01,62.93,5.07,84.46,17.59c20.82,12.1,33.98,29.65,37.04,49.41
		c4.3,27.7-12.86,52.79-41.73,61.03C392.28,371.32,390.43,371.57,388.61,371.57z"/>
	<path class="st1" d="M195.43,346.32c-1.08,0-2.17-0.09-3.26-0.27c-16.22-2.66-30.02-8.57-39.89-17.08
		c-11.66-10.05-17.45-23.61-15.88-37.2c3.32-28.85,38.91-57.53,128.85-51.52c11.02,0.74,19.36,10.27,18.62,21.29
		c-0.74,11.02-10.27,19.35-21.29,18.62c-64.89-4.33-84.57,11.96-86.37,16.03c1,2.18,7.47,7.93,22.43,10.39
		c10.9,1.79,18.29,12.07,16.5,22.97C213.54,339.36,205.05,346.32,195.43,346.32z"/>
	<path class="st0" d="M515.87,673.75c-3.6,0-7.15-1.61-9.52-4.68l-53.12-68.95c-4.05-5.25-3.07-12.79,2.18-16.83
		c5.25-4.05,12.79-3.07,16.83,2.18l53.13,68.95c4.04,5.25,3.07,12.79-2.18,16.83C521,672.94,518.42,673.75,515.87,673.75z"/>
	<path class="st0" d="M242.23,662.85c0.41,7.08-5.26,13.02-12.35,12.93l-4.64-0.06l-41.8-0.53c-3.62-0.04-6.79-2.69-7.36-6.39
		c-0.64-4.12,2.18-7.97,6.3-8.61l22.23-3.88l22.96-4.72C234.87,650.1,241.79,655.42,242.23,662.85L242.23,662.85z"/>
	<path class="st0" d="M504.51,662.85c-0.41,7.08,5.26,13.02,12.35,12.93l4.64-0.06l41.8-0.53c3.62-0.04,6.79-2.69,7.36-6.39
		c0.64-4.12-2.18-7.97-6.3-8.61l-22.23-3.88l-22.96-4.72C511.87,650.1,504.94,655.42,504.51,662.85L504.51,662.85z"/>
	<path class="st0" d="M230.28,675.4c-2.61,0-5.24-0.85-7.45-2.6c-15.89-12.6-29.54-26.72-40.58-41.97
		c-4.5-6.22-8.55-12.63-12.04-19.05c-3.17-5.82-1.01-13.11,4.81-16.27c5.82-3.17,13.11-1.01,16.27,4.81c3,5.52,6.5,11.05,10.4,16.44
		c9.75,13.47,21.88,26,36.05,37.24c5.19,4.12,6.06,11.67,1.94,16.86C237.32,673.84,233.82,675.4,230.28,675.4z"/>
	<path class="st1" d="M176.78,624.8c-10.04,0-19.66-5.7-24.19-15.4c-4.89-10.47-8.48-21.07-10.69-31.49
		c-4.43-20.88-3.34-40.52,3.22-58.37c10.44-28.4,33.87-49.6,51.68-62.38c22.15-15.9,47.44-26.81,75.17-32.42
		c14.44-2.92,28.51,6.41,31.43,20.85c2.92,14.44-6.41,28.5-20.85,31.43c-20.28,4.1-38.67,12-54.65,23.47
		c-16.36,11.74-28.29,25.4-32.72,37.46c-3.04,8.28-3.42,18.01-1.11,28.91c1.37,6.46,3.67,13.19,6.85,20
		c6.23,13.35,0.45,29.21-12.89,35.44C184.39,623.99,180.55,624.8,176.78,624.8z"/>
	<path class="st2" d="M250.58,171.87c-10.73-11.59-13.37-21.53-17.12-27.18c-6.91-10.39-26.37-18.56-82-8.13
		c0.84,8.95,1.68,17.91,2.52,26.86c41.41-14.03,59.75-9.08,68.68-1.02c4.06,3.67,8.1,9.23,17.12,15.13
		c10.56,6.91,21.75,8.51,29.49,8.8C264.33,183.64,257.29,179.12,250.58,171.87z"/>
	<path class="st2" d="M151.46,178.53c0,8.11,0,16.23,0,24.34c27.27-14.63,45.94-14.43,58.1-11.35c8.39,2.13,16.79,5.61,29.89,5.56
		c11.97-0.05,21.64-5.21,27.78-9.4c-7.94,0.14-19.27-0.73-31.26-5.99c-10.94-4.79-16.24-9.13-21.83-12.08
		C203.6,164.05,185.28,161.68,151.46,178.53z"/>
	<path class="st1" d="M468.01,625.89c-8.31,0-16.49-3.87-21.7-11.14c-10.16-14.17-21.01-28.1-32.25-41.39
		c-31.96-37.77-68.53-72.14-108.69-102.13c-11.8-8.81-14.22-25.52-5.41-37.32c8.81-11.8,25.53-14.22,37.32-5.41
		c43.39,32.41,82.91,69.56,117.48,110.41c12.17,14.38,23.91,29.45,34.9,44.78c8.58,11.97,5.83,28.63-6.15,37.21
		C478.81,624.26,473.38,625.89,468.01,625.89z"/>
	<path class="st0" d="M296.24,442.05L296.24,442.05c-22.43,1.51-42.29-14.38-45.73-36.6l-16.18-104.46
		c-7.08-34.41,18.28-67,53.38-68.59h0c35.1-1.59,63.31,28.56,59.38,63.47l-10.64,107.22C334.35,424.15,317.35,440.62,296.24,442.05z
		"/>
	<g>
		<path class="st0" d="M228.96,303.29l-8.24,18.33c-1.96,4.35-0.01,9.47,4.34,11.42l20.85,9.37c3.17,1.43,6.91,0.01,8.33-3.17
			l10.17-22.63c1.43-3.17,0.01-6.91-3.17-8.33l-20.82-9.35C236.05,296.97,230.92,298.92,228.96,303.29z"/>
	</g>
	<path class="st3" d="M301.37,227.14c-0.85,0.26-2.22,0.57-3.88,0.57c-1.16,0-2.45-0.15-3.82-0.57c-3.62-1.11-5.77-3.49-6.74-4.81"
		/>
	<path class="st1" d="M286.87,251.78L286.87,251.78c17.01,0,30.8-13.79,30.8-30.8v-33.35c0-20.8-16.86-37.66-37.66-37.66h0
		c-20.8,0-37.66,16.86-37.66,37.66l15.5,43.66C262.21,243.57,273.83,251.78,286.87,251.78z"/>
	<rect x="240.44" y="177.69" class="st2" width="77.23" height="17.63"/>
	<path class="st4" d="M317.66,204.74h-46c-4.98,0-9.05-4.07-9.05-9.05v0c0-4.98,4.07-9.05,9.05-9.05h46V204.74z"/>
	<polygon class="st5" points="309.92,204.74 302.06,204.74 302.06,189.63 	"/>
	<path class="st0" d="M208.75,446.91c14.78-7.92,86.98-49.92,86.98-49.92s70.58,47.02,84.48,57.45
		c-5.46,5.42-36.18,34.89-84.21,34.09C244.23,487.66,213.33,452.32,208.75,446.91z"/>
	<rect x="248.74" y="392.92" class="st2" width="88.62" height="29.63"/>
	<path class="st3" d="M315.25,197.56h-3.44c-1.35,0-2.44-1.09-2.44-2.44v-0.16c0-1.35,1.09-2.44,2.44-2.44h3.44
		c1.35,0,2.44,1.09,2.44,2.44v0.16C317.69,196.47,316.6,197.56,315.25,197.56z"/>
	<path class="st3" d="M281.41,197.56h-3.44c-1.35,0-2.44-1.09-2.44-2.44v-0.16c0-1.35,1.09-2.44,2.44-2.44h3.44
		c1.35,0,2.44,1.09,2.44,2.44v0.16C283.85,196.47,282.76,197.56,281.41,197.56z"/>
	<circle class="st0" cx="317.49" cy="195.05" r="2.56"/>
	<circle class="st0" cx="283.78" cy="195.05" r="2.56"/>
	<g>
		<path class="st3" d="M358.51,321.28c0.97,23.15-10.63,48.36-38.43,59.05c-27.81,10.69-53.78,1.02-63.6-20.33
			c-9.82-21.35,4.76-47.33,32.56-58.02c26.86-11.47,40.09,0.8,54.68-18.23C353.79,292.56,357.92,307.41,358.51,321.28z"/>
		<path class="st3" d="M313.87,288.96c1.73-0.53,21.14-2.91,24.15-13.41c1.94-6.75,2.8-10.85,4.56-12.35
			c0.22-0.19,0.01-0.52-0.27-0.42c-3.06,1.06-9.76,3.95-12.53,9.56c-2,4.05-2.06,5.75-6.91,9.85
			C318.37,286,311.7,289.62,313.87,288.96z"/>
		<path class="st3" d="M291.18,285.62c0,0,10.37-4.49,18.58-5.96c8.46-1.51,8.85-6.67,8.85-6.67s-3.72,1.44-9.53,2.67
			C294.78,278.69,291.18,285.62,291.18,285.62z"/>
		<path class="st6" d="M261.58,347.47c0.09-0.81,0.16-1.63,0.26-2.44c0.48-3.81,1.72-7.41,3.8-10.74
			c4.91-7.85,12.21-12.73,21.94-14.47c1.73-0.31,3.52-0.42,5.29-0.46c3.28-0.07,6.57-0.03,9.86-0.02c4.48,0.02,8.74-0.82,12.77-2.62
			c3.15-1.41,5.92-3.29,8.33-5.62c0.14-0.13,0.41-0.25,0.59-0.22c0.32,0.05,0.23,0.35,0.21,0.56c-0.48,3.96-1.85,7.64-4.15,11.02
			c-0.04,0.06-0.09,0.11-0.11,0.17c-0.04,0.16-0.14,0.42-0.06,0.48c0.15,0.11,0.41,0.18,0.59,0.13c0.8-0.19,1.59-0.41,2.37-0.64
			c3.89-1.16,7.48-2.83,10.56-5.32c2.71-2.2,4.82-4.83,6.65-7.67c0.44-0.68,0.84-1.39,1.29-2.06c0.11-0.16,0.36-0.33,0.55-0.33
			c0.16,0,0.39,0.19,0.49,0.34c1.96,3.3,3.15,6.82,3.71,10.54c0.48,3.18,0.52,6.37,0.22,9.57c-0.7,7.51-3.47,14.35-8.18,20.5
			c-7.09,9.27-16.63,15.4-28.59,18.36c-3.5,0.86-7.06,1.35-10.69,1.38c-2.2,0.02-4.41,0.04-6.6-0.12c-3.2-0.23-6.19-1.16-8.97-2.63
			c-4.67-2.47-8.09-5.93-9.93-10.61c-1.1-2.79-1.33-5.67-0.85-8.6c0.7-4.25,2.72-7.91,6.05-10.93c3.29-2.99,7.26-4.8,11.85-5.39
			c11.17-1.43,21.57,5.37,23.72,15.47c0.36,1.7,0.54,3.43,0.27,5.16c-0.22,1.44-0.78,2.73-2.08,3.67c-1.83,1.32-5.97,0.99-6.91-2.41
			c-0.19-0.68-0.26-1.41-0.27-2.12c-0.03-2.65-0.01-5.31-0.01-7.96c0-2.41-1.77-4.44-4.32-4.95c-0.37-0.08-0.76-0.11-1.14-0.11
			c-2.49-0.01-4.98-0.01-7.47-0.01c-5.92,0-11.25,3.85-12.61,9.11c-1.7,6.58,2.78,13.11,10.06,14.45c4.72,0.87,8.74-0.5,12.06-3.65
			c0.06-0.06,0.1-0.12,0.15-0.19c0.04-0.05,0.08-0.1,0.15-0.19c0.15,0.19,0.28,0.37,0.42,0.53c1.61,1.89,3.75,2.87,6.33,3.15
			c2.68,0.29,5.05-0.33,7.09-1.92c1.98-1.55,3.08-3.56,3.63-5.86c0.45-1.91,0.33-3.83,0.07-5.74c-0.37-2.67-1.08-5.26-2.37-7.69
			c-3.91-7.33-10.21-11.98-18.96-13.51c-8.78-1.54-16.57,0.62-23.12,6.2c-4.38,3.73-6.97,8.38-7.95,13.77
			c-1.73,9.56,3.26,19.29,12.45,24.3c3.43,1.87,7.12,3.02,11.08,3.47c3.36,0.39,6.72,0.39,10.09,0.16
			c6.99-0.47,13.67-2.02,19.98-4.79c2.11-0.92,4.11-2.06,6.16-3.1c0.14-0.07,0.28-0.15,0.42-0.22c0.03,0.03,0.06,0.05,0.09,0.08
			c-0.07,0.11-0.12,0.23-0.22,0.32c-6.33,6.12-13.99,10.06-23.04,11.73c-3.38,0.62-6.79,0.91-10.24,0.96
			c-4.45,0.07-8.79-0.5-12.94-1.99c-8.49-3.05-14.34-8.53-17.64-16.28c-1.1-2.58-1.74-5.26-1.99-8.02
			c-0.05-0.58-0.12-1.16-0.17-1.74C261.58,348.98,261.58,348.22,261.58,347.47z M300.33,345.31c0-1.16,0-2.31,0-3.47
			c0-0.54-0.15-0.67-0.72-0.67c-1.49,0-2.99-0.01-4.48,0c-1.16,0.01-2.34-0.04-3.49,0.07c-4.44,0.41-7.57,4.46-6.6,8.45
			c0.94,3.86,4.88,6.22,9.15,5.48c3.39-0.59,6.03-3.41,6.13-6.58c0.03-1.09,0.01-2.18,0.01-3.28
			C300.33,345.31,300.33,345.31,300.33,345.31z"/>
		<g>
			<path class="st3" d="M350.73,338.2c1.17-3.84,1.57-7.7,1.35-11.53c-0.2-3.82-1-7.6-2.19-11.27c-1.2-3.67-2.8-7.24-4.7-10.7
				c-1.9-3.47-4.12-6.81-6.49-10.15c3.31,2.6,6.14,5.71,8.52,9.1c2.36,3.4,4.26,7.1,5.52,10.99c1.26,3.89,1.9,7.98,1.67,12.05
				C354.17,330.73,353.05,334.8,350.73,338.2z"/>
			<path class="st3" d="M339.11,370.34c-6.8,6.34-15.46,11.24-24.25,14.17c-4.4,1.46-8.87,2.48-13.22,2.93
				c-4.36,0.45-8.58,0.34-12.51-0.21c-7.89-1.14-14.51-4.13-20.06-7.89c-5.52-3.84-10.12-8.39-13.88-13.69
				c6.8,2.27,12.84,5.23,19.06,7.69c7.86,11.66,13.5,10.18,19.23,5.57c3.39,0.47,6.85,0.7,10.46,0.6c3.61-0.11,7.36-0.56,11.2-1.28
				C322.83,376.8,330.78,374.07,339.11,370.34z"/>
			<path class="st3" d="M308.83,293.24c-5.45,2.21-10.66,4.54-15.62,7.24c-4.96,2.69-9.66,5.69-14.08,9.01
				c-4.42,3.32-8.56,6.95-12.41,10.87c-3.87,3.91-7.38,8.13-10.83,12.58c1.66-5.25,4.47-10.18,7.93-14.69
				c3.47-4.51,7.64-8.58,12.33-12.09c4.68-3.51,9.87-6.45,15.38-8.68C297.04,295.27,302.88,293.71,308.83,293.24z"/>
		</g>
	</g>
	<g>
		<g>
			<path class="st0" d="M358.65,346.61l12.28,15.91c2.91,3.78,2.22,9.2-1.56,12.12l-18.1,13.96c-2.76,2.13-6.71,1.62-8.84-1.14
				l-15.16-19.64c-2.13-2.76-1.62-6.71,1.14-8.84l18.07-13.94C350.27,342.11,355.72,342.82,358.65,346.61z"/>
		</g>
	</g>
</g>
</svg>
