<?xml version="1.0" encoding="utf-8"?>
<!-- Generator: Adobe Illustrator 23.1.1, SVG Export Plug-In . SVG Version: 6.00 Build 0)  -->
<svg version="1.1" id="Layer_1" xmlns="http://www.w3.org/2000/svg" xmlns:xlink="http://www.w3.org/1999/xlink" x="0px" y="0px"
	 viewBox="0 0 1000 1000" style="enable-background:new 0 0 1000 1000;" xml:space="preserve">
<style type="text/css">
	.st0{fill:#4D4D4D;}
	.st1{fill:#DD0031;}
	.st2{fill:#2E363A;}
	.st3{fill:#333333;}
	.st4{fill:#C0C2C4;}
	.st5{fill:#FF5061;}
	.st6{fill:#E1E3E3;}
	.st7{fill:#969FA5;}
	.st8{fill:#C3002F;}
	.st9{fill:#FFFFFF;}
	.st10{fill:#FFFFFF;stroke:#231F20;stroke-width:2;stroke-miterlimit:10;}
	.st11{fill:none;stroke:#231F20;stroke-width:3;stroke-miterlimit:10;}
	.st12{fill:#231F20;stroke:#231F20;stroke-width:3;stroke-miterlimit:10;}
	.st13{fill:none;stroke:#231F20;stroke-width:2;stroke-miterlimit:10;}
	.st14{fill:#231F20;}
	.st15{fill:#FFFFFF;stroke:#231F20;stroke-width:2;stroke-linejoin:round;stroke-miterlimit:10;}
	.st16{fill:#596770;}
	.st17{fill:none;stroke:#FF5061;stroke-width:3.6026;stroke-linecap:round;stroke-miterlimit:10;}
	.st18{opacity:0.56;fill:#FFFFFF;enable-background:new    ;}
	.st19{fill:none;stroke:#C0C2C4;stroke-width:4;stroke-linecap:round;stroke-miterlimit:10;}
	.st20{fill:none;stroke:#FF5061;stroke-width:3;stroke-linecap:round;stroke-miterlimit:10;}
	.st21{stroke:#FFFFFF;stroke-width:2;stroke-miterlimit:10;}
	.st22{fill:#DD0031;stroke:#FFFFFF;stroke-width:2;stroke-miterlimit:10;}
	.st23{fill:#596770;stroke:#FFFFFF;stroke-width:2;stroke-miterlimit:10;}
	.st24{fill:#DD0031;stroke:#231F20;stroke-width:2;stroke-miterlimit:10;}
	.st25{fill:#596770;stroke:#231F20;stroke-width:2;stroke-miterlimit:10;}
	.st26{fill:#E1E5EA;}
	.st27{fill:#14B24B;}
</style>
<g>
	<g>
		<path class="st0" d="M816.5,332.2c11.3-20.5,3.8-46.2-16.7-57.5l-12.4-6.8c-20.5-11.3-46.2-3.8-57.5,16.7l-82.1,149
			c-11.3,20.5-3.8,46.2,16.7,57.5l12.4,6.8c20.5,11.3,46.2,3.8,57.5-16.7L816.5,332.2z"/>
		<path class="st1" d="M861.3,292.1c0,0-19.1-74.5-41.4-125.5c0,0-4.5-13.9-45-8.4v0c-0.4,0.1-0.8,0.1-1.1,0.2s-0.8,0.1-1.2,0.2v0
			c-40.4,6.6-40.6,21.2-40.6,21.2c-5.9,53.2-4.7,131.9-4.9,132.4c24.4,20.7,58.5,18.6,69.3,17.2v0c0,0,0.6-0.1,1.8-0.2
			c1.1-0.2,1.8-0.3,1.8-0.3v0C810.8,327,844,319.1,861.3,292.1z"/>
		<path class="st1" d="M765.3,94.5c28.4-4.2,54.8,15.3,59.1,43.7s-16.2,38.2-44.6,42.4c-28.4,4.2-54,1.3-58.2-27.1
			C717.3,125.2,736.9,98.7,765.3,94.5z"/>
		<path class="st4" d="M805.9,174.4c-1,5.2-5.7,18.1-1.6,18.9l117.4,19c4,0.7,11.9-9.4,12.8-14.7l0,0c1-5.2-2.8-16.9-6.9-17.6
			l-115.5-17.9C808.1,161.4,806.9,169.2,805.9,174.4L805.9,174.4z"/>
		<path class="st1" d="M779.1,878.7l0,16.8c0,10.2-8.3,18.5-18.5,18.5H705c-3.2,0-6.4-0.3-9.5-0.7L779.1,878.7z"/>
		<path class="st1" d="M86.8,835.4l125.4,51.9c0.8,0.3,1.5,0.6,2.3,0.9c-13.1,8.5-28.6,13.4-45.3,13.4h-62.7
			c-11.5,0-20.9-9.3-20.9-20.9v-45.9C86,834.9,86.4,835.2,86.8,835.4z"/>
		<path class="st0" d="M83.1,790.2l252.3-132.3c107.6-52.9,213.9-133.4,284.4-84.7C721.8,643.7,430.4,842.4,406,864.2
			c-49.4,44.1-168.2,39.4-199.4,26.5L90.2,847.9C70.4,839.7,49.6,823.7,83.1,790.2z"/>
		<path class="st0" d="M802.8,840.2c0,0,9.7-75.4,4.4-94.8c-5.3-19.4-143.1-138.7-222.3-105.8c-44.4,18.4-24.7,69.1-37.9,111.6
			c-1.2,2.5-34.5,54.4-35.3,56.5l-23.8,39.4c-7.3,17.7,1.1,37.9,18.7,45.2l74.6,39.7c13.5,5.6,52.4,15.2,83.5,2.3l107.6-44.6
			C792.1,881.3,801.9,864.9,802.8,840.2z"/>
		<g>
			<path class="st1" d="M486.1,661.3c1.8-5,4-9.7,6.7-14.1c10.8-22.2,30.7-39.8,56.4-46.6c46.9-12.5,95.2,15.3,107.7,62.3l17,63.7
				c3.2,11.7-3.8,23.8-15.5,26.9l-63.8,17.1c-27.5,7.3-73.6-13-72.2-12l-44.3-15.8c-10.3-3.7-15.7-15.1-12-25.4L486.1,661.3z"/>
			<path class="st1" d="M602.5,585c13.1-25.1,37.1-44.3,67.1-50c19.8-3.8,39.3-1.1,56.4,6.4c2.5,44.3,17.8,88.4,46.9,126.3
				c6.8,8.9,14.2,17.1,22,24.7c-2.2,8.7-9.2,15.8-18.7,17.6l-70.7,13.5c-6.2,1.2-12.5,1.7-18.6,1.7l-16.1-60.3
				C660.9,627.9,634.9,599.5,602.5,585z"/>
			<path class="st1" d="M386.5,616.4c37.5-28.8,63.6-67,77.3-108.7c18.3-2.8,37.6-0.3,55.6,8.4c27.2,13.2,45.2,37.7,51.3,65.1
				c-34.8,5.5-66.9,26-85.8,58.8L454,693.4c-5.9-1.5-11.7-3.6-17.4-6.4l-64.1-31c-8.6-4.1-13.4-12.7-13.3-21.6
				C368.6,629.1,377.7,623.1,386.5,616.4z"/>
		</g>
		<path d="M421.6,579.5c0,0,20.8-90.4,66.5-167.9c0,0,21.2-19.6,119.5-7.5l0,0c1,0.1,1.9,0.3,2.8,0.4c0.9,0.1,1.9,0.2,2.8,0.4l0,0
			c98.1,13.8,113.4,38.2,113.4,38.2c24,86.7,20.6,179.5,20.6,179.5c-55.5,30.2-137.7,23.8-164.1,20.8v0c0,0-1.5-0.2-4.3-0.5
			c-2.7-0.3-4.2-0.6-4.2-0.6v0C548.5,638.3,467.4,623.1,421.6,579.5z"/>
		<path class="st1" d="M524.4,316.9c7.4-8.8,13.7-18.1,18.9-27.8c7.4,3.1,14.5,7.6,20.8,13.5c33,30.5,35.5,86.7,5.5,125.6
			c-30,38.9-81,45.8-114,15.3l-44.8-41.4c-7-6.5-8.5-17.6-4.2-26.7C450.7,373.2,493.7,353.3,524.4,316.9z"/>
		<path class="st1" d="M709.6,350c-3-11.1-4.7-22.3-5.4-33.4c-8.1-0.3-16.4,0.7-24.7,3.4c-43.1,13.7-69.4,64-58.6,112.2
			c10.7,48.3,54.3,76.3,97.5,62.6l58.5-18.6c9.2-2.9,15.2-12.4,15.2-22.6C752.8,432.7,722,396.3,709.6,350z"/>
		<path class="st3" d="M561.6,451.1L507,369.7c-40.2-60-28.7-147.1,25.7-194.5c54.4-47.5,131.2-37.3,171.4,22.7
			c40.2,59.9,28.7,147-25.7,194.5l-73.9,64.4C590.9,468.7,571.7,466.1,561.6,451.1z"/>
		<path class="st4" d="M505,270.6c-8.5,64.1,26.1,121.6,77.3,128.3s99.6-39.7,108-103.8c8.5-64.1-26.1-121.6-77.4-128.4
			C561.9,159.9,513.5,206.4,505,270.6z"/>
		<g>
			<path class="st2" d="M597.9,579.5l-5.1-0.6c0,0-1.3-0.2-3.7-0.5l-1.3-0.2c-2.4-0.3-3.7-0.5-3.7-0.5l-1.6-0.3
				c-24.7-4-96.9-18.5-143.9-56.2c1.2-3.4,2.5-7,3.8-10.6c45.7,38.7,120.6,53,143.4,56.6l2.1,0.3c0.6,0.1,1.3,0.2,2.1,0.3l1.6,0.2
				l2.6,0.3c22.5,2.8,96.8,9.4,151.1-14.1c0.3,3.8,0.5,7.5,0.7,11.2C693.2,586.8,625.2,582.4,597.9,579.5z"/>
			<path class="st2" d="M577,614.9c-25.8-4.2-101.8-19.5-149.4-59.7c1-3.4,2.1-7.1,3.4-11.1c46.1,41.7,125.7,56.9,149.4,60.6
				l2.1,0.3c0.6,0.1,1.4,0.2,2.2,0.3c0.6,0.1,1.2,0.2,1.7,0.2l2.6,0.3c23.5,2.9,102.4,9.9,158-16.2c0.1,4.2,0.2,8,0.2,11.5
				c-54.2,23.4-126,18.8-154.3,15.8l-5.1-0.6c0,0-1.4-0.2-3.8-0.5c-0.4-0.1-0.9-0.1-1.4-0.2c-2.4-0.3-3.8-0.6-3.8-0.6L577,614.9z"/>
			<path class="st2" d="M741.9,519.8c0.5,3.7,0.9,7.4,1.2,11c-49.5,21.1-114.5,17.1-140.7,14.3l-5.1-0.6c0,0-1.2-0.1-3.4-0.5
				l-1.4-0.2c-2.2-0.3-3.4-0.5-3.4-0.5l-1.9-0.3c-0.8-0.1-1.7-0.3-2.7-0.5l-0.5-0.1c-26.4-4.6-91.5-18.9-133.2-53.8
				c1.4-3.4,2.8-6.8,4.2-10.3c42.4,37.4,114.2,51.1,135.7,54.5l2,0.3c0.5,0.1,1.2,0.2,2,0.3l1.5,0.2l2.4,0.3
				C619.9,536.6,691,542.9,741.9,519.8z"/>
		</g>
		<ellipse class="st6" cx="572.1" cy="283.3" rx="49.9" ry="77"/>
		<path class="st5" d="M780.3,460.1c1,0.4-36.4,15.5-42.7,13.5c0,0-42.2-41-49-56.9l21.5-30.4C710,386.4,738,442.8,780.3,460.1z"/>
		<path class="st5" d="M411.3,384.6c-1,0,24.5,25.9,30.4,26.5c0,0,33.2-3.7,68.5-34.3l-12.5-22.2
			C497.7,354.6,452.4,385.4,411.3,384.6z"/>
		<path class="st5" d="M427.3,584.9c0,0-43.6,51.1-62.9,53.1c0,0-0.5,10.5,25.1,21.2s44.1,21.2,44.1,21.2s7.6-1,2.5-5.4
			s-48.9-23.6-48.9-28.4s41.2-48.4,45.3-58L427.3,584.9z"/>
		<path class="st5" d="M741.1,625.4c0,0,21.2,56.7,44.4,67.1c0,0,1,7.6-6.9,11s-28.6,4.7-35.3,7.7s-51.2,12.8-54.3,6.7
			s-7.3-18-6.9-21.1c0.5-3.1,5-5.3,7.7-1.7c2.7,3.6,3.1,15.3,7.4,14.8s61.9-10.6,66.5-13.1c0,0-28.2-57.3-29.2-67.7L741.1,625.4z"/>
		<path class="st5" d="M660.4,704.4c0,0,10.9,24.2,6,34.4c-4.9,10.3-26.6,11.3-33.2,14.1c-6.6,2.8-45.1,18.6-72.1,13.3
			c-27-5.2-31.1-12.7-52.3-20.2c-21.2-7.5-11.1-10.8-7.4-10.3s29.5,9.4,35.1,11.2s42.8,16.8,73.6,0.6s30.5-5.2,35.3-16.9
			c4.8-11.7-1.9-41.7,6.2-43.7C659.7,685.1,657.3,696.8,660.4,704.4z"/>
		<path d="M514.4,275.5c0.6-4.3,25.5,2.1,59.1,7.5c1-7.3,2.1-14.4,3.4-21.3c-32.6-3.9-57.1-5.9-56.6-9.6c0.5-3.7,25.4-2.3,58.1,1.7
			c1.4-7.4,3-14.4,4.5-20.8c-29.2-3.1-51.5-3.2-51.1-6.2c0.4-3,23.2-3.9,52.8-0.9c1.9-7.5,3.8-14.2,5.6-19.9
			c-19.7-2.5-34.6-4.1-34.3-6.4c0.3-2.3,16-2.2,36.3,0.1c3-8.9,5.4-14,6.3-13.9c0.9,0.1,0,5.4-1.8,14.4c1,0.1,2,0.2,3.1,0.4
			c23.9,3.2,43,7.9,42.7,10.5c-0.3,2.6-19.6-0.7-43.5-3.9c-1.2-0.2-2.3-0.3-3.5-0.5c-1.2,5.7-2.6,12.4-4.1,20
			c1.6,0.2,3.3,0.4,4.9,0.6c35.1,4.6,62.9,12.9,62.4,16.3c-0.5,3.4-28.3-4.4-63.4-9.1c-1.8-0.2-3.6-0.5-5.4-0.7
			c-1.3,6.6-2.6,13.5-3.8,21c2.1,0.2,4.2,0.5,6.4,0.8c39.5,5.2,71.3,11.2,70.7,15.4c-0.5,4.2-32.3-2.2-71.8-7.5
			c-2.3-0.3-4.5-0.6-6.7-0.9c-1.1,6.9-2.2,14.1-3.2,21.5c2.3,0.4,4.7,0.7,7.1,1c40.9,5.4,74.8,5,74.1,10c-0.7,4.9-34.2,2.9-75.1-2.6
			c-2.4-0.3-4.7-0.6-7-1c-1,8-1.8,15.7-2.5,23.1c2.1,0.4,4.3,0.7,6.5,1c39.5,5.2,72.8-0.5,72.3,3.7c-0.6,4.2-33.7,8.5-73.2,3.3
			c-2.1-0.3-4.2-0.6-6.2-0.9c-0.7,7.4-1.2,14.6-1.7,21.1c1.7,0.3,3.4,0.5,5.1,0.8c35.1,4.6,64.7-0.9,64.3,2.5s-32,8.8-67.1,4.1
			c-1-0.1-1.9-0.3-2.8-0.4c-0.5,7.9-0.9,14.8-1.2,20.5c1.1,0.2,2.1,0.3,3.2,0.5c23.9,3.2,44.1-0.3,43.8,2.3
			c-0.4,2.6-20.6,6.6-44.5,3.4c-1-0.1-1.9-0.3-2.9-0.4c-0.5,7.3-1,11.5-1.8,11.4c-0.8-0.1-1.7-4.5-2.3-12.1
			c-20.5-3.8-35.4-11.4-35.1-13.7c0.3-2.3,14.8,4.1,34.7,7.8c-0.3-5.8-0.5-12.8-0.4-20.8c-30.1-5.5-51-16.3-50.6-19.4
			c0.4-3,21.6,6.8,50.7,12.3c0.2-6.6,0.5-13.7,0.9-21.2c-32.6-6-56.4-16.3-56-20c0.5-3.7,24.1,6.7,56.5,12.9
			c0.6-7.4,1.3-15,2.3-22.9C538.9,285.5,513.8,279.8,514.4,275.5z"/>
		<g>
			<path class="st4" d="M205.2,73c-1,5.6,2.6,10.9,8.2,11.9l536.2,106c5.6,1,15.6-9.5,16.6-15.1l0,0c1-5.6-4.8-18.3-10.3-19.3
				L217.1,64.8C211.5,63.8,206.2,67.5,205.2,73L205.2,73z"/>
			<path class="st1" d="M410.3,118.8l2.4-13.6c1.1-6.5,7.3-10.8,13.8-9.7c2,0.3,3.8,1.2,5.3,2.4c1.8-0.6,3.7-0.8,5.8-0.5
				c6.5,1.2,10.8,7.3,9.7,13.8l-2.3,13.6c-1.1,6.5-7.3,10.8-13.8,9.7c-2-0.4-3.8-1.2-5.3-2.4c-1.8,0.6-3.7,0.8-5.7,0.5
				C413.5,131.4,409.2,125.2,410.3,118.8z"/>
			<path class="st1" d="M186,69.7c-1.2,6.7,3.3,13.1,10,14.3l14,2.4c6.7,1.2,13.1-3.3,14.2-10l0,0c1.2-6.7-3.3-13.1-10-14.2l-14-2.5
				C193.6,58.5,187.2,63,186,69.7L186,69.7z"/>
		</g>
		<path class="st0" d="M724.4,398.6c19.9-12.4,25.9-38.5,13.5-58.3l-7.5-12c-12.4-19.9-38.5-25.9-58.3-13.5l-144.4,89.9
			c-19.9,12.4-25.9,38.5-13.5,58.3l7.5,12c12.4,19.9,38.5,25.9,58.3,13.5L724.4,398.6z"/>
		<path class="st1" d="M771,370.7c0,0,19.7-74.4,25.2-129.8c0,0,2.9-14.3-35.1-29.3l0,0c-0.4-0.1-0.7-0.3-1.1-0.4s-0.7-0.3-1.1-0.4
			l0,0c-38.4-14-45.7-1.3-45.7-1.3c-31.2,43.5-68.5,112.8-68.9,113.2c11.2,30,42,44.8,52.1,48.9v0c0,0,0.6,0.2,1.6,0.6
			c1.1,0.4,1.7,0.6,1.7,0.6v0C709.9,376.4,742.7,385.8,771,370.7z"/>
		<path class="st1" d="M783.7,151.3c26.8,10.2,40.3,40.2,30.2,67c-10.2,26.8-32.8,25.4-59.6,15.2c-26.8-10.2-47.7-25.2-37.6-52
			C726.9,154.7,756.9,141.2,783.7,151.3z"/>
		<path class="st5" d="M799.4,174.9c0,0,14.2,19,4.7,37.5c-9.5,18.4-23.8,18.9-23.8,18.9l-28.6,139c0,0-8.4,4.3-22.5,3.2l35.3-141.9
			c0,0-16.1-1.9-11.3-7.1s20.4-4.7,27.1-7.8c6.7-3.1,25.7-15.7,11.7-36.3C784.5,169.5,794.9,168,799.4,174.9z"/>
		<path class="st3" d="M748.3,716.2c0,0,33.6,28.3,31.5,32.5c-2.1,4.2-17.3,10.5-23.6,6.3c-6.3-4.2-29.9-34.6-29.9-34.6L748.3,716.2
			z"/>
		<path class="st3" d="M766.2,713.5c0,0,32,25.7,33,33s-0.5,98.5-5.2,106.9c-4.7,8.4-6.3,5.2-6.3,0.5s5.2-99.1,3.1-105.9
			c-2.1-6.8-35.6-33-35.6-33L766.2,713.5z"/>
		<path class="st3" d="M501.1,751.8c0,0-156.9,127.9-173.7,131c-16.8,3.1-12-2.1-10.5-5.8c1.5-3.8,170.3-133.4,171-130.5
			L501.1,751.8z"/>
		<path class="st3" d="M479.3,743.9c0,0-120.4,92.8-123,90.7s-6.8-4.7-3.1-7.9S473.7,741,473.7,741L479.3,743.9z"/>
	</g>
	<g>
		<polygon class="st1" points="556.2,505.6 556.2,505.6 556.2,505.6 597.3,534 574.2,592.3 530,603.3 530,603.3 530,603.3 
			497.2,571.6 506.4,509.6 		"/>
		<polygon class="st8" points="556.2,505.6 553.3,516.4 553.3,516.4 540,565.9 540,565.9 530,603.3 530,603.3 497.2,571.6 
			506.4,509.6 		"/>
		<path class="st9" d="M553.3,516.4L553.3,516.4L553.3,516.4L553.3,516.4l-45.4,56.1l0,0l10.6,2.8l0,0l9.5-12.7l24.1,6.5l1.9,15.8
			l0,0l10.6,2.8l0,0L553.3,516.4L553.3,516.4z M547.7,537.1l2.9,22.2l-16.6-4.5L547.7,537.1z"/>
	</g>
</g>
</svg>
