<svg xmlns="http://www.w3.org/2000/svg" width="45" height="52.5" viewBox="0 0 45 52.5"><g transform="translate(-127.5 -430.5)"><path d="M41.25-52.5h-30a3.624,3.624,0,0,0-2.666,1.084A3.624,3.624,0,0,0,7.5-48.75v45A3.624,3.624,0,0,0,8.584-1.084,3.624,3.624,0,0,0,11.25,0h37.5a3.624,3.624,0,0,0,2.666-1.084A3.624,3.624,0,0,0,52.5-3.75v-37.5Zm7.5,48.75H11.25v-45H37.5V-37.5H48.75Z" transform="translate(120 483)"/><path d="M10.991-6.875H.795l6.79,6.79a.689.689,0,0,0,.953.029,10.291,10.291,0,0,0,3.142-6.053A.689.689,0,0,0,10.991-6.875Zm-.68-2.784A10.337,10.337,0,0,0,.722-19.248a.691.691,0,0,0-.722.7v9.615H9.615A.691.691,0,0,0,10.311-9.659ZM-2.063-6.875v-10.2a.689.689,0,0,0-.767-.69A10.3,10.3,0,0,0-11.681-7.2,10.44,10.44,0,0,0-1.245,2.749,10.233,10.233,0,0,0,4.567.857.683.683,0,0,0,4.635-.177Z" transform="translate(150 469)"/></g></svg>