<svg xmlns="http://www.w3.org/2000/svg" width="45" height="52.5" viewBox="0 0 45 52.5"><g transform="translate(-383.5 -267.5)"><path d="M41.25-52.5h-30a3.624,3.624,0,0,0-2.666,1.084A3.624,3.624,0,0,0,7.5-48.75v45A3.624,3.624,0,0,0,8.584-1.084,3.624,3.624,0,0,0,11.25,0h37.5a3.624,3.624,0,0,0,2.666-1.084A3.624,3.624,0,0,0,52.5-3.75v-37.5Zm7.5,48.75H11.25v-45H37.5V-37.5H48.75Z" transform="translate(376 320)"/><path d="M-9.625-13.75h5.5v-5.5h-5.5ZM-2.75,0h5.5V-5.5h-5.5ZM-9.625,0h5.5V-5.5h-5.5Zm0-6.875h5.5v-5.5h-5.5Zm6.875,0h5.5v-5.5h-5.5ZM4.125-19.25v5.5h5.5v-5.5Zm0,12.375h5.5v-5.5h-5.5ZM-2.75-13.75h5.5v-5.5h-5.5ZM4.125,0h5.5V-5.5h-5.5Z" transform="translate(406 310)"/></g></svg>