<?xml version="1.0" encoding="utf-8"?>
<!-- Generator: Adobe Illustrator 23.1.1, SVG Export Plug-In . SVG Version: 6.00 Build 0)  -->
<svg version="1.1" id="Layer_1" xmlns="http://www.w3.org/2000/svg" xmlns:xlink="http://www.w3.org/1999/xlink" x="0px" y="0px"
	 viewBox="0 0 1000 1000" style="enable-background:new 0 0 1000 1000;" xml:space="preserve">
<style type="text/css">
	.st0{fill:#4D4D4D;}
	.st1{fill:#FF5500;}
	.st2{fill:#C0C2C4;}
	.st3{fill:#333333;}
	.st4{fill:#2E363A;}
	.st5{fill:#E1E3E3;}
	.st6{fill:#FF884D;}
</style>
<g>
	<path class="st0" d="M734.3,478.7c-11.3,20.5-37,28-57.5,16.7l-12.4-6.8c-20.5-11.3-28-37-16.7-57.5l82.1-149
		c11.3-20.5,37-28,57.5-16.7l12.4,6.8c20.5,11.3,28,37,16.7,57.5L734.3,478.7z"/>
	<path class="st1" d="M799.8,326.4L799.8,326.4c0,0-0.6,0.1-1.8,0.3c-1.1,0.2-1.8,0.2-1.8,0.2v0c-10.9,1.3-44.9,3.5-69.3-17.2
		c0.1-0.5-1.1-79.2,4.9-132.4c0,0,0.2-14.6,40.6-21.2v0c0.4-0.1,0.8-0.1,1.2-0.2s0.8-0.1,1.1-0.2v0c40.5-5.5,45,8.4,45,8.4
		c22.3,51,41.4,125.5,41.4,125.5C843.8,316.6,810.6,324.5,799.8,326.4z"/>
	<path class="st1" d="M721.3,151c4.2,28.4,29.8,31.3,58.2,27.1c28.4-4.2,48.8-14,44.6-42.4S793.4,87.8,765.1,92
		S717.1,122.7,721.3,151z"/>
	<path class="st2" d="M805.7,172c1-5.2,2.2-13.1,6.2-12.4l115.5,17.9c4.1,0.8,7.8,12.4,6.9,17.6l0,0c-1,5.2-8.8,15.4-12.8,14.7
		l-117.4-19C800,190.1,804.7,177.2,805.7,172L805.7,172z"/>
	<path class="st1" d="M695.3,910.8c3.1,0.4,6.3,0.7,9.5,0.7h55.5c10.2,0,18.5-8.3,18.5-18.5l0-16.8L695.3,910.8z"/>
	<path class="st1" d="M85.3,832.3v45.9c0,11.6,9.4,20.9,20.9,20.9h62.7c16.7,0,32.3-5,45.3-13.4c-0.8-0.3-1.6-0.5-2.3-0.9
		L86.6,832.9C86.2,832.7,85.8,832.5,85.3,832.3z"/>
	<path class="st0" d="M90,845.4l116.4,42.8c31.1,12.9,150,17.6,199.4-26.5c24.5-21.9,315.8-220.5,213.9-291.1
		c-70.5-48.8-176.8,31.7-284.4,84.7L82.9,787.7C49.4,821.2,70.2,837.2,90,845.4z"/>
	<path class="st0" d="M772.1,887l-107.6,44.6c-31.1,12.9-70.1,3.3-83.5-2.3l-74.6-39.7c-17.6-7.3-26-27.5-18.7-45.2l23.8-39.4
		c0.8-2,34.1-54,35.3-56.5c13.2-42.5-6.5-93.2,37.9-111.6c79.2-32.8,217,86.4,222.3,105.8c5.3,19.4-4.4,94.8-4.4,94.8
		C801.7,862.4,791.9,878.8,772.1,887z"/>
	<g>
		<path class="st1" d="M465.8,714.9c-3.7,10.3,1.7,21.7,12,25.4l44.3,15.8c-1.4-1.1,44.7,19.3,72.2,12l63.8-17.1
			c11.7-3.1,18.7-15.2,15.5-26.9l-17-63.7c-12.6-46.9-60.8-74.8-107.7-62.3c-25.7,6.9-45.7,24.4-56.4,46.6
			c-2.6,4.4-4.9,9.1-6.7,14.1L465.8,714.9z"/>
		<path class="st1" d="M670.6,662.4l16.1,60.3c6.2,0,12.4-0.5,18.6-1.7l70.7-13.5c9.4-1.8,16.4-8.9,18.7-17.6
			c-7.8-7.6-15.2-15.8-22-24.7c-29.1-37.9-44.4-82-46.9-126.3c-17.2-7.5-36.6-10.2-56.4-6.4c-30,5.7-54,24.9-67.1,50
			C634.7,597,660.7,625.4,670.6,662.4z"/>
		<path class="st1" d="M359,631.9c-0.1,8.9,4.8,17.5,13.3,21.6l64.1,31c5.7,2.8,11.5,4.8,17.4,6.4l30.9-53.5
			c19-32.8,51.1-53.4,85.8-58.8c-6.1-27.4-24.1-51.9-51.3-65.1c-18-8.7-37.3-11.2-55.6-8.4c-13.8,41.8-39.8,80-77.3,108.7
			C377.5,620.6,368.4,626.6,359,631.9z"/>
	</g>
	<path d="M574.5,639.7L574.5,639.7c0,0,1.5,0.3,4.2,0.6c2.7,0.4,4.3,0.5,4.3,0.5v0c26.4,3,108.6,9.4,164.1-20.8
		c0,0,3.4-92.7-20.6-179.5c0,0-15.3-24.4-113.4-38.2l0,0c-0.9-0.1-1.9-0.2-2.8-0.4c-0.9-0.1-1.8-0.3-2.8-0.4l0,0
		c-98.3-12.2-119.5,7.5-119.5,7.5C442.3,486.6,421.4,577,421.4,577C467.2,620.6,548.3,635.8,574.5,639.7z"/>
	<path class="st1" d="M406.4,372.9c-4.3,9.2-2.9,20.3,4.2,26.7l44.8,41.4c33,30.5,84.1,23.6,114-15.3c29.9-38.9,27.5-95.2-5.5-125.6
		c-6.3-5.9-13.4-10.3-20.8-13.5c-5.2,9.7-11.5,19-18.9,27.8C493.5,350.9,450.5,370.7,406.4,372.9z"/>
	<path class="st1" d="M791.9,451c0,10.2-6,19.7-15.2,22.6l-58.5,18.6C675,506,631.4,478,620.7,429.7
		c-10.7-48.3,15.5-98.5,58.6-112.2c8.3-2.6,16.6-3.7,24.7-3.4c0.6,11.1,2.4,22.2,5.4,33.4C721.8,393.8,752.6,430.2,791.9,451z"/>
	<path class="st3" d="M604.3,454.3l73.9-64.4c54.4-47.5,66-134.6,25.7-194.5c-40.2-60-117-70.1-171.4-22.7
		c-54.4,47.4-65.9,134.5-25.7,194.5l54.6,81.4C571.5,463.6,590.7,466.2,604.3,454.3z"/>
	<path class="st2" d="M612.9,164.2c51.2,6.8,85.8,64.3,77.4,128.4c-8.5,64.1-56.8,110.6-108,103.8s-85.8-64.2-77.3-128.3
		C513.3,203.9,561.7,157.4,612.9,164.2z"/>
	<g>
		<path class="st4" d="M745.7,563c-0.2-3.6-0.5-7.3-0.7-11.2c-54.4,23.5-128.6,16.8-151.1,14.1l-2.6-0.3l-1.6-0.2
			c-0.8-0.1-1.5-0.2-2.1-0.3l-2.1-0.3c-22.8-3.6-97.7-17.9-143.4-56.6c-1.3,3.6-2.6,7.2-3.8,10.6c47,37.7,119.1,52.2,143.9,56.2
			l1.6,0.3c0,0,1.3,0.2,3.7,0.5l1.3,0.2c2.4,0.3,3.7,0.5,3.7,0.5l5.1,0.6C625,580,693,584.3,745.7,563z"/>
		<path class="st4" d="M578.5,612.7c0,0,1.4,0.2,3.8,0.6c0.4,0.1,0.9,0.1,1.4,0.2c2.4,0.3,3.8,0.5,3.8,0.5l5.1,0.6
			c28.3,3.1,100.1,7.7,154.3-15.8c0-3.5-0.1-7.3-0.2-11.5c-55.7,26.1-134.5,19.1-158,16.2l-2.6-0.3c-0.5-0.1-1.1-0.1-1.7-0.2
			c-0.8-0.1-1.6-0.2-2.2-0.3l-2.1-0.3c-23.7-3.7-103.3-18.9-149.4-60.6c-1.3,4-2.4,7.7-3.4,11.1c47.6,40.2,123.6,55.5,149.4,59.7
			L578.5,612.7z"/>
		<path class="st4" d="M598.4,531.5l-2.4-0.3l-1.5-0.2c-0.8-0.1-1.4-0.2-2-0.3l-2-0.3c-21.6-3.4-93.4-17.1-135.7-54.5
			c-1.5,3.5-2.9,6.9-4.2,10.3c41.8,35,106.9,49.3,133.2,53.8l0.5,0.1c1,0.2,1.8,0.3,2.7,0.5l1.9,0.3c0,0,1.2,0.2,3.4,0.5l1.4,0.2
			c2.2,0.3,3.4,0.5,3.4,0.5l5.1,0.6c26.2,2.8,91.2,6.8,140.7-14.3c-0.4-3.6-0.8-7.3-1.2-11C690.8,540.4,619.7,534.1,598.4,531.5z"/>
	</g>
	<ellipse class="st5" cx="571.9" cy="280.8" rx="49.9" ry="77"/>
	<path class="st6" d="M709.8,383.9l-21.5,30.4c6.8,15.9,49,56.9,49,56.9c6.3,2,43.7-13.1,42.7-13.5
		C737.8,440.3,709.8,383.9,709.8,383.9z"/>
	<path class="st6" d="M497.5,352.1l12.5,22.2c-35.3,30.6-68.5,34.3-68.5,34.3c-5.9-0.6-31.4-26.5-30.4-26.5
		C452.2,382.9,497.5,352.1,497.5,352.1z"/>
	<path class="st6" d="M432.4,586.2c-4.1,9.6-45.3,53.3-45.3,58s43.8,23.9,48.9,28.4s-2.5,5.4-2.5,5.4s-18.5-10.5-44.1-21.2
		s-25.1-21.2-25.1-21.2c19.3-2,62.9-53.1,62.9-53.1L432.4,586.2z"/>
	<path class="st6" d="M734.4,626.6c1,10.4,29.2,67.7,29.2,67.7c-4.6,2.5-62.2,12.7-66.5,13.1s-4.7-11.3-7.4-14.8
		c-2.7-3.6-7.2-1.4-7.7,1.7c-0.4,3.1,3.9,15,6.9,21.1s47.5-3.8,54.3-6.7s27.4-4.2,35.3-7.7s6.9-11,6.9-11
		c-23.2-10.4-44.4-67.1-44.4-67.1L734.4,626.6z"/>
	<path class="st6" d="M651.3,684.5c-8.1,1.9-1.5,32-6.2,43.7c-4.8,11.7-4.5,0.7-35.3,16.9s-68,1.2-73.6-0.6s-31.4-10.6-35.1-11.2
		s-13.8,2.8,7.4,10.3c21.2,7.5,25.3,14.9,52.3,20.2c27,5.2,65.6-10.5,72.1-13.3c6.6-2.8,28.3-3.8,33.2-14.1c4.9-10.3-6-34.4-6-34.4
		C657.1,694.3,659.5,682.6,651.3,684.5z"/>
	<path d="M572.3,288c-1,7.9-1.7,15.5-2.3,22.9c-32.4-6.2-56-16.5-56.5-12.9c-0.5,3.7,23.3,14,56,20c-0.5,7.5-0.8,14.6-0.9,21.2
		c-29.1-5.5-50.3-15.3-50.7-12.3c-0.4,3.1,20.5,14,50.6,19.4c-0.1,8,0.1,15,0.4,20.8c-19.9-3.7-34.4-10.1-34.7-7.8
		c-0.3,2.4,14.7,10,35.1,13.7c0.6,7.6,1.5,12,2.3,12.1c0.8,0.1,1.3-4.1,1.8-11.4c0.9,0.2,1.9,0.3,2.9,0.4
		c23.9,3.2,44.2-0.8,44.5-3.4c0.3-2.6-19.8,0.8-43.8-2.3c-1.1-0.1-2.2-0.3-3.2-0.5c0.3-5.7,0.7-12.6,1.2-20.5
		c0.9,0.1,1.8,0.3,2.8,0.4c35.1,4.6,66.6-0.7,67.1-4.1s-29.2,2.1-64.3-2.5c-1.7-0.2-3.4-0.5-5.1-0.8c0.5-6.5,1-13.6,1.7-21.1
		c2,0.3,4.1,0.6,6.2,0.9c39.5,5.2,72.6,0.9,73.2-3.3c0.5-4.2-32.8,1.5-72.3-3.7c-2.2-0.3-4.4-0.6-6.5-1c0.7-7.4,1.6-15.1,2.5-23.1
		c2.3,0.3,4.7,0.6,7,1c40.9,5.4,74.5,7.5,75.1,2.6c0.6-4.9-33.2-4.5-74.1-10c-2.4-0.3-4.7-0.6-7.1-1c1-7.4,2.1-14.6,3.2-21.5
		c2.2,0.3,4.4,0.6,6.7,0.9c39.5,5.2,71.2,11.7,71.8,7.5c0.6-4.2-31.2-10.2-70.7-15.4c-2.2-0.3-4.3-0.6-6.4-0.8
		c1.3-7.5,2.6-14.4,3.8-21c1.8,0.2,3.5,0.4,5.4,0.7c35.1,4.6,63,12.5,63.4,9.1c0.5-3.4-27.4-11.7-62.4-16.3
		c-1.7-0.2-3.3-0.4-4.9-0.6c1.5-7.6,2.9-14.2,4.1-20c1.2,0.2,2.3,0.3,3.5,0.5c23.9,3.2,43.2,6.5,43.5,3.9
		c0.4-2.6-18.8-7.3-42.7-10.5c-1-0.1-2-0.2-3.1-0.4c1.8-9,2.7-14.3,1.8-14.4c-0.9-0.1-3.3,5-6.3,13.9c-20.4-2.3-36-2.4-36.3-0.1
		c-0.3,2.3,14.5,3.9,34.3,6.4c-1.8,5.7-3.7,12.3-5.6,19.9c-29.6-3-52.4-2.1-52.8,0.9c-0.4,3,21.9,3.1,51.1,6.2
		c-1.5,6.5-3.1,13.4-4.5,20.8c-32.8-3.9-57.6-5.4-58.1-1.7c-0.5,3.7,24.1,5.7,56.6,9.6c-1.2,6.8-2.4,14-3.4,21.3
		c-33.6-5.3-58.5-11.8-59.1-7.5S538.7,283,572.3,288z"/>
	<g>
		<path class="st2" d="M205,70.6c1-5.6,6.3-9.2,11.9-8.2l538.8,91.8c5.6,1,11.4,13.7,10.3,19.3l0,0c-1,5.5-11.1,16.1-16.6,15.1
			l-536.2-106C207.6,81.4,203.9,76.1,205,70.6L205,70.6z"/>
		<path class="st1" d="M419.8,130c2,0.4,3.9,0.1,5.7-0.5c1.5,1.2,3.3,2,5.3,2.4c6.5,1.1,12.7-3.2,13.8-9.7l2.3-13.6
			c1.1-6.5-3.2-12.6-9.7-13.8c-2-0.3-4-0.1-5.8,0.5c-1.5-1.2-3.2-2-5.3-2.4c-6.5-1.1-12.7,3.2-13.8,9.7l-2.4,13.6
			C409,122.7,413.3,128.9,419.8,130z"/>
		<path class="st1" d="M185.8,67.2c1.2-6.7,7.6-11.2,14.3-10l14,2.5c6.7,1.2,11.2,7.6,10,14.2l0,0c-1.2,6.7-7.5,11.2-14.2,10
			l-14-2.4C189.1,80.3,184.6,73.9,185.8,67.2L185.8,67.2z"/>
	</g>
	<path class="st0" d="M579.8,486c-19.8,12.4-46,6.3-58.3-13.5l-7.5-12c-12.4-19.9-6.3-46,13.5-58.3l144.4-89.9
		c19.9-12.4,46-6.3,58.3,13.5l7.5,12c12.4,19.9,6.3,46-13.5,58.3L579.8,486z"/>
	<path class="st1" d="M699.4,370.4L699.4,370.4c0,0-0.6-0.2-1.7-0.6c-1.1-0.4-1.6-0.6-1.6-0.6v0c-10.1-4.1-40.9-18.9-52.1-48.9
		c0.4-0.4,37.8-69.6,68.9-113.2c0,0,7.3-12.6,45.7,1.3l0,0c0.4,0.1,0.7,0.3,1.1,0.4s0.7,0.3,1.1,0.4l0,0c38,15,35.1,29.3,35.1,29.3
		c-5.4,55.4-25.2,129.8-25.2,129.8C742.5,383.3,709.7,374,699.4,370.4z"/>
	<path class="st1" d="M716.5,179c-10.2,26.8,10.7,41.9,37.6,52c26.8,10.2,49.5,11.6,59.6-15.2c10.2-26.8-3.4-56.8-30.2-67
		C756.7,138.7,726.7,152.2,716.5,179z"/>
	<path class="st6" d="M791.7,177.8c14,20.6-5,33.2-11.7,36.3c-6.7,3.1-22.3,2.5-27.1,7.8s11.3,7.1,11.3,7.1L728.9,371
		c14.1,1.1,22.5-3.2,22.5-3.2l28.6-139c0,0,14.3-0.5,23.8-18.9c9.5-18.4-4.7-37.5-4.7-37.5C794.7,165.6,784.3,167,791.7,177.8z"/>
	<path class="st3" d="M726.1,717.9c0,0,23.6,30.4,29.9,34.6c6.3,4.2,21.5-2.1,23.6-6.3c2.1-4.2-31.5-32.5-31.5-32.5L726.1,717.9z"/>
	<path class="st3" d="M755,712.6c0,0,33.5,26.2,35.6,33c2.1,6.8-3.1,101.2-3.1,105.9s1.6,7.9,6.3-0.5c4.7-8.4,6.3-99.6,5.2-106.9
		s-33-33-33-33L755,712.6z"/>
	<path class="st3" d="M487.8,744.1c-0.8-2.9-169.5,126.7-171,130.5c-1.5,3.7-6.3,8.9,10.5,5.8c16.8-3.1,173.7-131,173.7-131
		L487.8,744.1z"/>
	<path class="st3" d="M473.5,738.5c0,0-116.9,82.6-120.6,85.8s0.5,5.8,3.1,7.9s123-90.7,123-90.7L473.5,738.5z"/>
</g>
</svg>
