<?xml version="1.0" encoding="utf-8"?>
<!-- Generator: Adobe Illustrator 24.0.3, SVG Export Plug-In . SVG Version: 6.00 Build 0)  -->
<svg version="1.1" id="Layer_1" xmlns="http://www.w3.org/2000/svg" xmlns:xlink="http://www.w3.org/1999/xlink" x="0px" y="0px"
	 viewBox="0 0 665.86 698.34" style="enable-background:new 0 0 665.86 698.34;" xml:space="preserve">
<style type="text/css">
	.st0{fill:#0B0204;}
	.st1{fill:#0C2749;}
	.st2{fill:#29B473;}
	.st3{fill:#FFFFFF;}
	.st4{fill:#FAB16A;}
	.st5{fill:#F27043;}
	.st6{fill:#5F318D;}
	.st7{fill:#84CEF2;}
	.st8{fill:none;}
	.st9{fill:#E07E27;}
	.st10{fill:#0A183D;}
	.st11{fill:#E11D37;}
	.st12{fill:#C22035;}
	.st13{fill:#15254B;}
	.st14{fill:#E21E36;}
	.st15{fill:#E9AC6A;}
	.st16{fill:#E8AB6A;}
	.st17{fill:#DA7F27;}
	.st18{fill:#41B983;}
	.st19{fill:#2A374B;}
	.st20{fill:#67C08B;}
	.st21{fill:#16254C;}
	.st22{fill-rule:evenodd;clip-rule:evenodd;fill:#67C08B;}
	.st23{fill-rule:evenodd;clip-rule:evenodd;fill:#0C2749;}
	.st24{fill-rule:evenodd;clip-rule:evenodd;fill:#30495C;}
	.st25{fill-rule:evenodd;clip-rule:evenodd;fill:#FAB16A;}
	.st26{fill-rule:evenodd;clip-rule:evenodd;fill:#DA7F27;}
	.st27{fill-rule:evenodd;clip-rule:evenodd;fill:#F27043;}
</style>
<g>
	<g>
		<polygon class="st0" points="355.78,264.31 327.89,292.19 351.79,301.75 381.27,271.48 381.27,233.24 355.78,233.24 		"/>
		<path class="st5" d="M286.74,374.96l5.6-12.39c2.07-4.57,6.54-7.57,11.55-7.74l16.32-0.57c2.13-0.07,3.56,2.16,2.6,4.06
			l-0.86,1.72c-0.31,0.61-0.83,1.09-1.46,1.34L286.74,374.96z"/>
		<path class="st5" d="M333.8,414.36l-5.6-12.39c-2.07-4.57-6.54-7.57-11.55-7.74l-16.32-0.57c-2.13-0.07-3.56,2.16-2.6,4.06
			l0.86,1.72c0.31,0.61,0.83,1.09,1.46,1.34L333.8,414.36z"/>
		<path class="st4" d="M513.28,675.21c-4.14,0-8.14-2.27-10.15-6.21l-62.48-122.25c-2.86-5.6-0.64-12.46,4.96-15.32
			c5.6-2.86,12.46-0.64,15.32,4.96l62.48,122.25c2.86,5.6,0.64,12.46-4.96,15.32C516.8,674.8,515.03,675.21,513.28,675.21z"/>
		<path class="st1" d="M260.34,390.66c-4.55,0-9.12-1.63-12.76-4.93c-10.23-9.3-15.69-19.76-16.21-31.09
			c-1.49-32.24,37.49-51.24,58.43-61.45c21.79-10.62,45.57-17.23,70.68-19.66c10.44-1.01,19.71,6.63,20.72,17.07
			c1.01,10.43-6.63,19.71-17.07,20.72c-20.59,1.99-40,7.37-57.7,16c-7.56,3.68-17.91,8.73-26.19,14.57
			c-9.37,6.62-10.78,10.48-10.94,11.03c0.09,0.27,0.73,1.92,3.8,4.71c7.76,7.05,8.34,19.05,1.29,26.81
			C270.65,388.57,265.5,390.66,260.34,390.66z"/>
		<path class="st4" d="M524.73,663.14c0.39,6.72-4.99,12.36-11.72,12.27l-4.4-0.06l-39.67-0.5c-3.44-0.04-6.44-2.55-6.98-6.06
			c-0.61-3.91,2.07-7.57,5.98-8.17l21.1-3.68l21.79-4.48C517.74,651.04,524.31,656.08,524.73,663.14L524.73,663.14z"/>
		<path class="st4" d="M210.5,675.21c-1.51,0-3.05-0.3-4.52-0.94c-5.77-2.5-8.42-9.21-5.92-14.98l54.6-125.97
			c2.5-5.77,9.21-8.42,14.98-5.92s8.42,9.21,5.92,14.98l-54.6,125.97C219.09,672.64,214.9,675.21,210.5,675.21z"/>
		<path class="st4" d="M221.95,663.14c0.39,6.72-4.99,12.36-11.72,12.27l-4.4-0.06l-39.67-0.5c-3.44-0.04-6.44-2.55-6.98-6.06
			c-0.61-3.91,2.07-7.57,5.98-8.17l21.1-3.68l21.79-4.48C214.97,651.04,221.54,656.08,221.95,663.14L221.95,663.14z"/>
		<path class="st0" d="M387.45,425.2l-40.94,117.08l-1.39,97.3c-0.03,1.8-1.49,3.25-3.3,3.25H164.63c-2.66,0-4.23-2.99-2.71-5.18
			l87.62-126.26l100.92-97.21L387.45,425.2z"/>
		<path class="st0" d="M427.67,405.08l126.64,233.57c1.19,2.2-0.41,4.88-2.91,4.87l-191.57-0.69c-1.81-0.01-3.27-1.47-3.29-3.27
			l-0.69-92.98l22.27-127.13L427.67,405.08z"/>
		<path class="st5" d="M427.47,424.24L354.18,433l-14.47-111.08c-4.95-31.18,19.15-59.4,50.72-59.4h0
			c31.57,0,55.67,28.22,50.72,59.4L427.47,424.24z"/>
		<path class="st1" d="M347.02,397.94l86.03-8.45l-3.76,30.42c-2.41,19.52-18.72,34.34-38.38,34.89
			c-20.1,0.56-37.46-13.98-40.45-33.87L347.02,397.94z"/>
		<g>
			<path class="st1" d="M473.45,450.39l-29.17,25.98c-1.25,1.11-3.19,0.86-4.11-0.54l-40.18-60.97c-1.01-1.53-0.26-3.59,1.48-4.13
				l21-6.46c0.9-0.28,1.88-0.07,2.59,0.54l48.35,41.45C474.67,447.34,474.69,449.29,473.45,450.39z"/>
			<path class="st1" d="M323.66,466.12l-21-14.57c-1.55-1.07-1.58-3.35-0.06-4.46l51.1-37.47c0.85-0.62,1.99-0.7,2.92-0.2
				l17.33,9.31c1.67,0.9,1.95,3.18,0.54,4.45l-47.43,42.73C326.11,466.76,324.7,466.85,323.66,466.12z"/>
			<path class="st1" d="M334.97,471.07l33.67-54.1l42.37-2.42c1.33-0.08,2.53,0.82,2.83,2.12l15.37,67.1L334.97,471.07z"/>
		</g>
		<g>
			<path class="st4" d="M316.66,344.9l3.86-53.56l-0.78-142.56l-0.81-103.14c-0.02-1.92-1.56-3.48-3.48-3.51l0,0
				c-1.91-0.03-3.5,1.47-3.59,3.38l-4.54,103.07l-5.25,142.46l2.18,53.65L316.66,344.9z"/>
			<path class="st0" d="M309.19,140.24l8.95,0.14c1.4,0.02,2.51,1.17,2.49,2.57l-0.09,5.87c-0.02,1.4-1.17,2.51-2.57,2.49
				l-8.95-0.14c-1.4-0.02-2.51-1.17-2.49-2.57l0.09-5.87C306.64,141.33,307.79,140.22,309.19,140.24z"/>
			<path class="st0" d="M313.01,41.82l5,0.08c1.19,0.02,2.14,1,2.12,2.19l-0.09,5.94c-0.02,1.19-1,2.14-2.19,2.12l-5-0.08
				c-1.19-0.02-2.14-1-2.12-2.19l0.09-5.94C310.84,42.75,311.82,41.8,313.01,41.82z"/>
			<polygon class="st0" points="298.62,444.93 319.14,445.25 316.69,344.58 304.22,344.39 			"/>
			<path class="st0" d="M286.05,337.26l48.22,0.76c1.13,0.02,2.03,0.95,2.02,2.08l-0.07,4.76c-0.02,1.13-0.95,2.03-2.08,2.02
				l-48.22-0.76c-1.13-0.02-2.03-0.95-2.02-2.08l0.07-4.76C283.99,338.15,284.92,337.24,286.05,337.26z"/>
		</g>
		<path class="st5" d="M290.95,424.04l0.27-17.75c0.08-5.24,5.04-9.01,10.11-7.7l28.81,7.49l-3.3,23.49l-27.04,2.63
			C295.01,432.67,290.88,428.86,290.95,424.04z"/>
		<path class="st5" d="M329.59,384.63l-0.27-17.75c-0.08-5.24-5.04-9.01-10.11-7.7l-28.81,7.49l3.3,23.49l27.04,2.63
			C325.53,393.27,329.67,389.45,329.59,384.63z"/>
		<polygon class="st5" points="296.58,361.94 270.46,352.96 238.83,393.7 303.72,386.62 		"/>
		<path class="st10" d="M386.81,439.29c-2.95,0-6.01-0.11-9.2-0.35c-10.45-0.78-18.3-9.89-17.52-20.34
			c0.78-10.46,9.91-18.3,20.34-17.52c23.29,1.74,34.23-6.6,37.03-9.19c18.77-17.4,17.37-63.54-14.64-104.5
			c-6.45-8.26-4.99-20.19,3.27-26.64c8.26-6.45,20.19-4.99,26.64,3.27c20.35,26.05,32.63,56.22,34.57,84.95
			c1.96,28.99-6.81,54.79-24.05,70.77C435.07,427.34,417.31,439.29,386.81,439.29z"/>
		<polygon class="st5" points="323.96,401.34 393.22,399.26 393.22,452.24 316.83,426.03 		"/>
		<g>
			<path class="st0" d="M372.5,264.3l38.24,33.46l46.2-18.32l-25.96-20.77c-3.73-2.99-5.91-7.51-5.91-12.29v-23.51H372.5V264.3z"/>
		</g>
		<g>
			<g>
				<path id="Fill-7_3_" class="st27" d="M412.44,181.2c14-7.21,21.28-15.65,25.36-22.25c4.73-7.64,6.3-14.65,13.53-17.69
					c4.47-1.89,7.3-0.65,16.39-0.78c8.36-0.12,15.19-1.31,19.77-2.34c0.43,3.3,0.87,6.59,1.3,9.89c-4.27,1.37-10.5,2.8-17.95,2.34
					c-7.88-0.49-10.95-2.71-15.61-1.04c-6.32,2.26-7.71,8.84-11.45,14.57C439.56,170.36,431.1,177.67,412.44,181.2z"/>
				<path id="Fill-7_4_" class="st27" d="M411.59,180.71c15.74-0.57,25.92-5.1,32.43-9.33c7.05-4.59,11.1-9.15,19.77-10.24
					c6.35-0.8,9.17,1.1,16.93,0.41c7.21-0.65,12.92-3.02,16.65-4.94c0.69,3.56,1.39,7.11,2.08,10.67c-3.51,1.45-9,3.28-15.87,3.64
					c-8.94,0.47-12.46-1.97-19.7-0.82c-7.72,1.23-10.92,4.83-16.56,8.31C440.75,182.46,429.98,185.47,411.59,180.71z"/>
				<path id="Fill-12_1_" class="st23" d="M409.56,164.99h-14.38c-21.96,0-40,17.78-40,40v31.36c0,14.01,11.36,25.37,25.37,25.37
					h19.59c14.01,0,25.37-11.36,25.37-25.37v-55.41C425.51,172.05,418.19,164.99,409.56,164.99"/>
				<path id="Fill-14_4_" class="st24" d="M421.85,218.84c0,17.52-14.12,31.63-31.63,31.63s-31.63-14.38-31.63-31.63
					s14.12-31.63,31.63-31.63S421.85,201.33,421.85,218.84"/>
				<path class="st25" d="M417.66,203.42c0-0.11-0.01-0.21-0.02-0.32c-5.45-9.5-15.66-15.89-27.44-15.89
					c-11.78,0-22,6.51-27.44,16.02c0,0.06-0.01,0.13-0.01,0.19v31.03c5.44,9.51,15.67,16.03,27.45,16.03
					c11.78,0,22.01-6.4,27.45-15.92V203.42z"/>
				<polygon id="Fill-20_1_" class="st27" points="377.14,226.43 391.52,226.43 391.52,201.59 				"/>
			</g>
			<g>
				<path class="st3" d="M406.75,208.14h-3.26c-1.28,0-2.32-1.04-2.32-2.32v-0.16c0-1.28,1.04-2.32,2.32-2.32h3.26
					c1.28,0,2.32,1.04,2.32,2.32v0.16C409.07,207.1,408.03,208.14,406.75,208.14z"/>
				<path class="st3" d="M374.25,208.14h-3.26c-1.28,0-2.32-1.04-2.32-2.32v-0.16c0-1.28,1.04-2.32,2.32-2.32h3.26
					c1.28,0,2.32,1.04,2.32,2.32v0.16C376.57,207.1,375.53,208.14,374.25,208.14z"/>
				<circle class="st0" cx="401.18" cy="205.76" r="2.43"/>
				<circle class="st0" cx="369.19" cy="205.76" r="2.43"/>
			</g>
		</g>
		<path class="st3" d="M391.32,240.19l-0.38-3c0.2-0.03,0.42-0.05,0.65-0.07c1.91-0.21,4.52-0.5,7.31-2.97
			c1.86-1.65,3.13-4.04,3.49-6.57l2.99,0.42c-0.46,3.23-2.09,6.29-4.48,8.41c-3.5,3.11-6.8,3.47-8.98,3.71L391.32,240.19z"/>
	</g>
	<g>
		<polygon id="Stroke-28_1_" class="st1" points="358.58,199.24 424.2,199.24 424.2,196.1 358.58,196.1 		"/>
		<polygon id="Stroke-30_1_" class="st1" points="358.58,213.61 424.2,213.61 424.2,210.48 358.58,210.48 		"/>
		<polygon id="Stroke-32_1_" class="st1" points="358.58,242.37 420.28,242.37 420.28,238.97 358.58,238.97 		"/>
		<polygon id="Stroke-34_1_" class="st1" points="358.58,227.99 424.2,227.99 424.2,224.59 358.58,224.59 		"/>
	</g>
</g>
</svg>
