<?xml version="1.0" encoding="utf-8"?>
<!-- Generator: Adobe Illustrator 24.0.3, SVG Export Plug-In . SVG Version: 6.00 Build 0)  -->
<svg version="1.1" id="Layer_1" xmlns="http://www.w3.org/2000/svg" xmlns:xlink="http://www.w3.org/1999/xlink" x="0px" y="0px"
	 viewBox="0 0 665.86 698.34" style="enable-background:new 0 0 665.86 698.34;" xml:space="preserve">
<style type="text/css">
	.st0{fill:#0B0204;}
	.st1{fill:#0C2749;}
	.st2{fill:#29B473;}
	.st3{fill:#FFFFFF;}
	.st4{fill:#FAB16A;}
	.st5{fill:#F27043;}
	.st6{fill:#5F318D;}
	.st7{fill:#84CEF2;}
	.st8{fill:none;}
	.st9{fill:#E07E27;}
	.st10{fill:#0A183D;}
	.st11{fill:#E11D37;}
	.st12{fill:#C22035;}
	.st13{fill:#15254B;}
	.st14{fill:#E21E36;}
	.st15{fill:#E9AC6A;}
	.st16{fill:#E8AB6A;}
	.st17{fill:#DA7F27;}
	.st18{fill:#41B983;}
	.st19{fill:#2A374B;}
	.st20{fill:#67C08B;}
	.st21{fill:#16254C;}
	.st22{fill-rule:evenodd;clip-rule:evenodd;fill:#67C08B;}
	.st23{fill-rule:evenodd;clip-rule:evenodd;fill:#0C2749;}
	.st24{fill-rule:evenodd;clip-rule:evenodd;fill:#30495C;}
	.st25{fill-rule:evenodd;clip-rule:evenodd;fill:#FAB16A;}
	.st26{fill-rule:evenodd;clip-rule:evenodd;fill:#DA7F27;}
	.st27{fill-rule:evenodd;clip-rule:evenodd;fill:#F27043;}
</style>
<g>
	<circle class="st3" cx="209.87" cy="174.6" r="89.6"/>
</g>
<g>
	<g>
		<path class="st18" d="M154.53,138.81l55.34,95.46l55.34-95.46h-22.14l-33.2,57.28l-33.48-57.28H154.53z"/>
		<path class="st19" d="M176.39,138.81l33.48,57.55l33.2-57.55h-20.48l-12.73,22.14l-13-22.14H176.39z"/>
	</g>
</g>
<g>
	<path class="st1" d="M275.38,390.14c-5.99,0-11.88-2.82-15.59-8.09c-6.05-8.6-3.98-20.48,4.62-26.52
		c19.48-13.7,38.7-28.29,57.14-43.36c13.18-10.78,26.26-22.05,38.87-33.5c7.78-7.07,19.82-6.49,26.89,1.3
		c7.07,7.79,6.49,19.83-1.3,26.89c-13.09,11.89-26.67,23.59-40.36,34.78c-19.15,15.65-39.11,30.8-59.34,45.03
		C282.99,389.01,279.17,390.14,275.38,390.14z"/>
	<polygon class="st20" points="222.58,392.14 273.84,343.22 303.75,379.72 239.06,410.09 	"/>
	<polygon class="st0" points="366.67,264.56 338.71,292.53 362.68,302.11 392.24,271.75 392.24,233.4 366.67,233.4 	"/>
	<path class="st20" d="M271.56,423.97l-11.88-6.69c-4.38-2.47-9.78-2.23-13.93,0.6l-13.53,9.23c-1.76,1.2-1.6,3.86,0.31,4.83
		l1.72,0.88c0.61,0.31,1.31,0.39,1.98,0.22L271.56,423.97z"/>
	<path class="st4" d="M524.65,676.69c-4.15,0-8.16-2.27-10.18-6.23l-62.66-122.62c-2.87-5.62-0.64-12.5,4.97-15.37
		c5.62-2.87,12.5-0.64,15.37,4.97l62.66,122.62c2.87,5.62,0.64,12.5-4.97,15.37C528.18,676.28,526.4,676.69,524.65,676.69z"/>
	<path class="st4" d="M536.13,664.58c0.39,6.74-5.01,12.39-11.76,12.31l-4.42-0.06l-39.78-0.5c-3.45-0.04-6.46-2.56-7.01-6.08
		c-0.61-3.92,2.08-7.59,6-8.2l21.16-3.7l21.85-4.49C529.12,652.45,535.71,657.51,536.13,664.58L536.13,664.58z"/>
	<path class="st4" d="M220.96,676.69c-1.52,0-3.06-0.3-4.54-0.95c-5.79-2.51-8.45-9.24-5.94-15.02l54.77-126.34
		c2.51-5.79,9.24-8.45,15.02-5.94c5.79,2.51,8.45,9.24,5.94,15.02L231.45,669.8C229.58,674.11,225.38,676.69,220.96,676.69z"/>
	<path class="st4" d="M232.45,664.58c0.39,6.74-5.01,12.39-11.76,12.31l-4.42-0.06l-39.78-0.5c-3.45-0.04-6.46-2.56-7.01-6.08
		c-0.61-3.92,2.08-7.59,6-8.2l21.16-3.7l21.85-4.49C225.44,652.45,232.04,657.51,232.45,664.58L232.45,664.58z"/>
	<path class="st0" d="M398.44,425.93l-41.06,117.43l-1.39,97.6c-0.03,1.81-1.5,3.26-3.31,3.26H174.96c-2.67,0-4.24-3-2.72-5.2
		l87.89-126.64l101.22-97.5L398.44,425.93z"/>
	<path class="st0" d="M438.79,405.76L565.8,640.03c1.2,2.21-0.41,4.89-2.92,4.89l-192.14-0.69c-1.81-0.01-3.28-1.47-3.3-3.28
		l-0.7-93.26l22.33-127.51L438.79,405.76z"/>
	<path class="st20" d="M438.58,424.97l-73.51,8.79l-14.51-111.41c-4.96-31.27,19.2-59.58,50.87-59.58h0
		c31.67,0,55.83,28.31,50.87,59.58L438.58,424.97z"/>
	<path class="st1" d="M357.89,398.59l86.29-8.48l-3.77,30.51c-2.42,19.57-18.78,34.44-38.49,34.99
		c-20.16,0.56-37.57-14.02-40.57-33.97L357.89,398.59z"/>
	<g>
		<path class="st1" d="M484.7,451.2l-29.26,26.06c-1.25,1.11-3.2,0.86-4.12-0.54l-40.3-61.15c-1.01-1.53-0.27-3.6,1.49-4.14
			l21.06-6.48c0.9-0.28,1.88-0.07,2.6,0.54l48.5,41.57C485.93,448.14,485.94,450.09,484.7,451.2z"/>
		<path class="st1" d="M334.46,466.98l-21.06-14.62c-1.55-1.08-1.58-3.36-0.06-4.48l51.25-37.58c0.85-0.63,1.99-0.71,2.93-0.2
			l17.39,9.34c1.68,0.9,1.95,3.19,0.54,4.46l-47.57,42.86C336.92,467.62,335.51,467.71,334.46,466.98z"/>
		<path class="st1" d="M345.81,471.94l33.78-54.26l42.49-2.42c1.34-0.08,2.54,0.82,2.84,2.13l15.41,67.3L345.81,471.94z"/>
	</g>
	<g>
		<path class="st4" d="M216.48,377.98l-28.67-45.59l-85.25-114.8l-61.88-82.91c-1.15-1.54-3.33-1.89-4.9-0.77l0,0
			c-1.57,1.11-1.96,3.27-0.89,4.86l57.51,86.03l80.31,118.3l33.6,42.09L216.48,377.98z"/>
		<path class="st0" d="M88.96,216.95l7.32-5.2c1.14-0.81,2.73-0.54,3.54,0.6l3.41,4.8c0.81,1.14,0.54,2.73-0.6,3.54l-7.32,5.2
			c-1.14,0.81-2.73,0.54-3.54-0.6l-3.41-4.8C87.55,219.35,87.82,217.76,88.96,216.95z"/>
		<path class="st0" d="M33.64,135.11l4.09-2.91c0.97-0.69,2.32-0.46,3.01,0.51l3.45,4.86c0.69,0.97,0.46,2.32-0.51,3.01l-4.09,2.91
			c-0.97,0.69-2.32,0.46-3.01-0.51l-3.45-4.86C32.43,137.15,32.66,135.8,33.64,135.11z"/>
		<polygon class="st0" points="261.26,469.57 278.04,457.65 216.32,377.71 206.12,384.96 		"/>
		<path class="st0" d="M187.2,389.97l39.43-28.01c0.93-0.66,2.21-0.44,2.87,0.49l2.76,3.89c0.66,0.93,0.44,2.21-0.49,2.87
			l-39.43,28.01c-0.93,0.66-2.21,0.44-2.87-0.49l-2.76-3.89C186.06,391.91,186.27,390.63,187.2,389.97z"/>
	</g>
	<path class="st20" d="M242.66,457.23l-10.32-14.51c-3.04-4.28-1.27-10.28,3.61-12.22l27.74-11.04l11.28,20.95l-20.3,18.17
		C251.07,461.8,245.46,461.17,242.66,457.23z"/>
	<path class="st21" d="M320.75,418.34c-7.76,0-15.05-4.78-17.88-12.49c-3.62-9.87,1.45-20.81,11.32-24.43
		c16.63-6.1,31.67-15.05,44.69-26.62c24.69-21.93,36.24-48.02,41.57-66.05c2.99-10.08,13.58-15.84,23.66-12.85
		c10.08,2.98,15.83,13.58,12.85,23.66c-6.75,22.79-21.38,55.81-52.8,83.71c-16.6,14.75-35.74,26.15-56.86,33.9
		C325.14,417.96,322.93,418.34,320.75,418.34z"/>
	<polygon class="st20" points="255.88,419.29 310.65,376.49 342.09,419.33 264.76,443.48 	"/>
	<g>
		<path class="st0" d="M383.45,264.55l38.35,33.56l46.34-18.38l-26.04-20.83c-3.74-2.99-5.92-7.53-5.92-12.32V223h-52.73V264.55z"/>
	</g>
	<g>
		<g>
			<path id="Fill-7_2_" class="st22" d="M423.5,181.2c14.04-7.24,21.34-15.7,25.44-22.32c4.74-7.66,6.32-14.69,13.57-17.74
				c4.49-1.89,7.33-0.65,16.44-0.78c8.39-0.12,15.24-1.32,19.83-2.35c0.43,3.31,0.87,6.61,1.3,9.92c-4.28,1.38-10.53,2.81-18,2.35
				c-7.91-0.49-10.98-2.72-15.66-1.04c-6.34,2.27-7.74,8.87-11.48,14.61C450.71,170.34,442.22,177.67,423.5,181.2z"/>
			<path id="Fill-7_1_" class="st22" d="M422.66,180.72c15.79-0.57,26-5.11,32.52-9.36c7.07-4.6,11.14-9.18,19.83-10.27
				c6.37-0.8,9.2,1.11,16.98,0.41c7.23-0.65,12.96-3.03,16.7-4.96c0.7,3.57,1.39,7.13,2.09,10.7c-3.52,1.46-9.03,3.29-15.92,3.65
				c-8.97,0.47-12.49-1.98-19.76-0.82c-7.74,1.24-10.96,4.84-16.61,8.33C451.9,182.47,441.1,185.49,422.66,180.72z"/>
			<path id="Fill-12_2_" class="st23" d="M420.62,164.94H406.2c-22.03,0-40.12,17.83-40.12,40.12v31.46
				c0,14.05,11.39,25.45,25.45,25.45h19.64c14.05,0,25.45-11.39,25.45-25.45v-55.58C436.61,172.02,429.27,164.94,420.62,164.94"/>
			<path id="Fill-14_2_" class="st24" d="M432.94,218.96c0,17.57-14.16,31.73-31.73,31.73c-17.57,0-31.73-14.42-31.73-31.73
				s14.16-31.73,31.73-31.73C418.78,187.23,432.94,201.39,432.94,218.96"/>
			<path class="st25" d="M428.75,203.49c0-0.11-0.01-0.21-0.02-0.32c-5.46-9.53-15.71-15.94-27.52-15.94
				c-11.81,0-22.06,6.53-27.52,16.07c0,0.06-0.01,0.13-0.01,0.19v31.12c5.46,9.54,15.71,16.08,27.53,16.08
				c11.82,0,22.07-6.42,27.53-15.97V203.49z"/>
			<polygon id="Fill-20_2_" class="st26" points="388.1,226.57 402.52,226.57 402.52,201.65 			"/>
		</g>
		<g>
			<path class="st3" d="M417.8,208.22h-3.27c-1.28,0-2.32-1.04-2.32-2.32v-0.16c0-1.28,1.04-2.32,2.32-2.32h3.27
				c1.28,0,2.32,1.04,2.32,2.32v0.16C420.12,207.18,419.08,208.22,417.8,208.22z"/>
			<path class="st3" d="M385.2,208.22h-3.27c-1.28,0-2.32-1.04-2.32-2.32v-0.16c0-1.28,1.04-2.32,2.32-2.32h3.27
				c1.28,0,2.32,1.04,2.32,2.32v0.16C387.53,207.18,386.49,208.22,385.2,208.22z"/>
			<circle class="st0" cx="412.21" cy="205.84" r="2.43"/>
			<circle class="st0" cx="380.12" cy="205.84" r="2.43"/>
		</g>
	</g>
	<path class="st20" d="M217.93,422.01l-10.16-14.06c-3.2-4.42-1.2-10.68,3.97-12.42l5.63-1.9c4.03-1.36,8.48,0.18,10.8,3.76
		l6.98,10.78c2.52,3.9,1.79,9.06-1.72,12.1l-3.62,3.13C226.21,426.5,220.72,425.86,217.93,422.01z"/>
	<path class="st20" d="M246.44,388.34l-11.94-6.59c-4.4-2.43-9.8-2.16-13.93,0.71l-13.45,9.33c-1.76,1.22-1.57,3.87,0.35,4.83
		l1.73,0.86c0.61,0.31,1.32,0.38,1.98,0.2L246.44,388.34z"/>
	<path class="st3" d="M398.63,241.11l-0.37-2.95l0.64-0.07c1.88-0.21,4.45-0.49,7.19-2.92c1.83-1.62,3.08-3.98,3.44-6.47l2.94,0.42
		c-0.45,3.17-2.05,6.19-4.41,8.28c-3.45,3.06-6.69,3.42-8.83,3.65L398.63,241.11z"/>
	<g>
		<polygon id="Stroke-28_2_" class="st1" points="369.48,199.29 435.3,199.29 435.3,196.15 369.48,196.15 		"/>
		<polygon id="Stroke-30_2_" class="st1" points="369.48,213.72 435.3,213.72 435.3,210.57 369.48,210.57 		"/>
		<polygon id="Stroke-32_2_" class="st1" points="369.48,242.56 431.37,242.56 431.37,239.15 369.48,239.15 		"/>
		<polygon id="Stroke-34_2_" class="st1" points="369.48,228.14 435.3,228.14 435.3,224.73 369.48,224.73 		"/>
	</g>
</g>
</svg>
